<svg xmlns="http://www.w3.org/2000/svg" xmlns:xlink="http://www.w3.org/1999/xlink" version="1.1" enable-background="new 0 0 100 100" xml:space="preserve" width="60" height="60" style=""><rect id="backgroundrect" width="100%" height="100%" x="0" y="0" fill="none" stroke="none" class="" style=""/><g class="currentLayer" style=""><title>Layer 1</title><g id="svg_1" class=""><path fill-rule="evenodd" clip-rule="evenodd" d="M56.46139948177337,38.05520540332794 c0,-0.009000000000000029 0,-0.017000000000000046 0,-0.026000000000000058 c-0.008000000000000016,0 -0.01800000000000003,0 -0.025000000000000053,0 c0,0.010000000000000016 0,0.01800000000000003 0,0.026000000000000058 C56.444399481773374,38.05520540332794 56.453399481773374,38.05520540332794 56.46139948177337,38.05520540332794 z" id="svg_2"/><path fill-rule="evenodd" clip-rule="evenodd" d="M54.19539948177338,20.117205403327944 c0.008000000000000016,0 0.01800000000000003,0 0.025000000000000053,0 c0,-0.010000000000000016 0,-0.02000000000000003 0,-0.030000000000000058 c-0.008000000000000016,0 -0.01800000000000003,0 -0.025000000000000053,0 C54.19539948177338,20.09720540332794 54.19539948177338,20.108205403327943 54.19539948177338,20.117205403327944 z" id="svg_3"/><path fill-rule="evenodd" clip-rule="evenodd" d="M54.19539948177338,22.459205403327942 c0,-0.81 0,-1.612 0,-2.341 c-4.418,0 -13.301,0 -13.301,0 l0.015000000000000029,-2.162 c0,0 -1.715,-0.03600000000000001 -2.257,-0.03600000000000001 c0,-1.2970000000000002 -0.0010000000000000022,-4.493 -0.0010000000000000022,-4.493 s-0.4770000000000003,0 -0.7050000000000006,0 c-5.538,0.01900000000000003 -11.077,-0.004000000000000008 -16.615,0 c-0.14800000000000021,0 -0.3100000000000005,-0.03600000000000001 -0.543,0 c0,1.447 0.014000000000000016,2.958 0.014000000000000016,4.469 c-0.7570000000000011,0 -1.427,0 -2.196,0 c0,0.7570000000000011 0,1.4220000000000002 0,2.16 c-4.47,0 -8.839,0 -13.309,0 c0,-0.6420000000000011 0,-1.372 0,-2.135 c-0.789,-0.04000000000000006 -1.483,-0.012000000000000016 -2.279,-0.051000000000000094 c0,-2.952 0,-5.86 0,-8.768 c-0.743000000000001,-0.005000000000000009 -1.487,-0.010000000000000016 -2.23,-0.015000000000000029 c0,3.6740000000000004 0,7.348 0,11.021 c1.423,0 2.983,0 4.51,0 c0.03700000000000001,0.801 -0.06500000000000013,1.612 -0.03200000000000006,2.352 c0.19900000000000037,0.022000000000000058 2.096,-0.004000000000000008 2.244,0 v2.117 c-0.3100000000000005,0 -0.792,0 -1.122,0 c-0.3370000000000007,0 -0.6740000000000014,0 -1.131,0 c0,2.2720000000000002 0,4.515 0,6.726 c-0.7240000000000006,0 -1.449,0 -2.242,0 c0,2.335 0,4.53 0,6.724 c-0.743000000000001,0.005000000000000009 -1.485,0.011000000000000029 -2.228,0.01600000000000003 c0,4.42 0,8.831 0,13.252 c0.7060000000000006,0 1.412,0 2.211,0 c0,0.788 0,1.475 0,2.229 c0.7580000000000011,0 1.425,0 2.2720000000000002,0 c0,1.564 0,3.029 0,4.505 c16.313,0 32.627,0 48.94,0 c0,-1.48 0,-2.959 0,-4.505 c0.801,0 1.473,0 2.241,0 c0,-0.733000000000001 0,-1.512 0,-2.229 c0.783,-0.04000000000000006 1.477,0.03400000000000008 2.164,0 c0,-4.478 0,-8.843 0,-13.237 c-0.756000000000001,0 -1.455,0 -2.153,0 c0,3.629 0,7.302 0,11.04 c-0.751000000000001,0 -1.448,0 -2.216,0 c0,0.778 0,1.407 0,2.197 c-1.512,0 -2.9530000000000003,0 -4.473,0 c0,0.784 0,1.495 0,2.229 H9.750399481773375 c0,-0.6810000000000014 0,-1.459 0,-2.229 c-1.5350000000000001,0 -2.952,0 -4.486,0 c0,-0.771 0,-1.421 0,-2.197 c-0.786,0 -1.457,0 -2.222,0 c0,-3.737 0,-7.388 0,-11.04 c0.7170000000000006,0 1.436,0 2.243,0 c0,-2.361 0,-4.545 0,-6.726 c0.6990000000000016,0 1.3980000000000001,0 2.169,0 c0,-1.512 0,-2.932 0,-4.457 c0.7650000000000011,0 1.46,0 2.254,0 c0,-0.771 0,-1.5310000000000001 0,-2.297 c2.975,0 5.852,0 8.833,0 c0,-0.7620000000000011 0,-1.338 0,-2.117 c0.79,-0.03800000000000001 2.258,0 2.258,0 h0.010000000000000016 l0.013000000000000029,-2.255 l2.016,-0.04600000000000011 c0,0 9.7,0 14.551,0 c0.3640000000000003,0 0.7290000000000006,0 1.191,0 c0,0.792 0,1.529 0,2.302 c0.7690000000000011,0 1.4380000000000002,0 2.212,0 c0,0.7690000000000011 0,1.339 0,2.117 c3.006,0 5.909,0 8.916,0 c0,1.5190000000000001 0,2.9610000000000003 0,4.449 c0.772,0 1.443,0 2.217,0 c0,0.77 0,1.465 0,2.276 c0.8200000000000006,0 1.545,0 2.268,0 c0,-1.469 0,-2.938 0,-4.505 c-0.8,0 -1.494,0 -2.156,0 c0,-1.512 0,-2.846 0,-4.338 C52.77739948177337,22.459205403327942 53.44639948177338,22.459205403327942 54.19539948177338,22.459205403327942 zM36.35739948177338,17.84720540332794 c-4.401,0 -8.773,0 -13.235,0 c0,-0.7090000000000006 0,-1.348 0,-2.037 c4.431,0 8.803,0 13.235,0 C36.35739948177338,16.50020540332794 36.35739948177338,17.138205403327945 36.35739948177338,17.84720540332794 z" id="svg_4"/><path fill-rule="evenodd" clip-rule="evenodd" d="M7.471399481773375,6.867205403327944 c2.248,0 4.408,0 6.662,0 c0,-0.777 0,-1.448 0,-2.193 c10.398,0 20.701,0 31.09,0 c0,0.6570000000000012 0,1.326 0,2.161 c2.299,0 4.517,0 6.7330000000000005,0 c0,-0.7230000000000006 0,-1.448 0,-2.261 c-1.521,0 -2.932,0 -4.473,0 c0,-0.799 0,-1.505 0,-2.212 c-11.893,0 -23.784,0 -35.677,0 c0,0.7080000000000006 0,1.415 0,2.225 c-1.417,0 -2.827,0 -4.348,0 c0,0.7620000000000011 0,1.424 0,2.196 c-1.518,0 -2.926,0 -4.4190000000000005,0 c0,0.8360000000000006 0,1.565 0,2.293 c1.447,0 2.894,0 4.431,0 C7.471399481773375,8.31520540332794 7.471399481773375,7.645205403327942 7.471399481773375,6.867205403327944 z" id="svg_5"/><path fill-rule="evenodd" clip-rule="evenodd" d="M3.0393994817733763,9.076205403327943 c-0.008000000000000016,0 -0.015000000000000029,0 -0.02300000000000006,0 c0,0.008000000000000016 0,0.01600000000000003 0,0.02400000000000003 c0.008000000000000016,0 0.015000000000000029,0 0.02300000000000006,0 C3.0393994817733763,9.093205403327943 3.0393994817733763,9.084205403327942 3.0393994817733763,9.076205403327943 z" id="svg_6"/><path fill-rule="evenodd" clip-rule="evenodd" d="M56.46139948177337,9.10320540332794 c0,-0.009000000000000029 0,-0.01800000000000003 0,-0.026000000000000058 c-0.008000000000000016,0 -0.01800000000000003,0 -0.025000000000000053,0 c0,0.009000000000000029 0,0.017000000000000046 0,0.026000000000000058 C56.444399481773374,9.10320540332794 56.453399481773374,9.10320540332794 56.46139948177337,9.10320540332794 z" id="svg_7"/><path fill-rule="evenodd" clip-rule="evenodd" d="M54.22039948177337,17.900205403327945 c0,0.801 0,1.495 0,2.188 c1.465,0 2.9290000000000003,0 4.3950000000000005,0 c0,-3.715 0,-7.339 0,-10.985 c-0.756000000000001,0 -1.455,0 -2.153,0 c0,2.895 0,5.79 0,8.797 C55.700399481773374,17.900205403327945 55.007399481773376,17.900205403327945 54.22039948177337,17.900205403327945 z" id="svg_8"/><path fill-rule="evenodd" clip-rule="evenodd" d="M56.43639948177338,38.02920540332794 c0,-2.217 0,-4.436 0,-6.7010000000000005 c-0.809,0 -1.512,0 -2.214,0 c0,2.189 0,4.376 0,6.7010000000000005 C54.99139948177337,38.02920540332794 55.71439948177337,38.02920540332794 56.43639948177338,38.02920540332794 z" id="svg_9"/><path fill-rule="evenodd" clip-rule="evenodd" d="M54.22239948177338,31.328205403327942 c0,-0.008000000000000016 0,-0.01800000000000003 0,-0.026000000000000058 c-0.009000000000000029,0 -0.02000000000000003,0 -0.029000000000000054,0 c0,0.009000000000000029 0,0.01900000000000003 0,0.026000000000000058 C54.20239948177337,31.328205403327942 54.21339948177338,31.328205403327942 54.22239948177338,31.328205403327942 z" id="svg_10"/><path fill-rule="evenodd" clip-rule="evenodd" d="M51.97839948177338,6.861205403327944 c0,-0.008000000000000016 0,-0.01800000000000003 0,-0.026000000000000058 c-0.008000000000000016,0 -0.015000000000000029,0 -0.021000000000000046,0 c0,0.009000000000000029 0,0.01800000000000003 0,0.026000000000000058 C51.96339948177338,6.861205403327944 51.97039948177337,6.861205403327944 51.97839948177338,6.861205403327944 z" id="svg_11"/><path fill-rule="evenodd" clip-rule="evenodd" d="M56.43639948177338,9.076205403327943 c0,-0.747000000000001 0,-1.494 0,-2.215 c-1.5790000000000002,0 -3.02,0 -4.458,0 c0,0.6970000000000016 0,1.3960000000000001 0,2.215 C53.501399481773376,9.076205403327943 54.96939948177338,9.076205403327943 56.43639948177338,9.076205403327943 z" id="svg_12"/><path fill-rule="evenodd" clip-rule="evenodd" d="M38.630399481773374,24.57620540332794 c-6.001,0 -11.896,0 -17.918,0 c0,0.775 0,1.584 0,2.293 c0.03700000000000001,0 0.07600000000000012,0.0010000000000000022 0.11200000000000013,0.0010000000000000022 c5.868,0 11.736,0 17.675,0 c0,5.131 0,10.233 0,15.452 c-0.6360000000000011,0.035 -1.311,-0.04000000000000006 -2.076,0 c0,0.7100000000000006 0.012000000000000016,1.498 0.012000000000000016,2.237 c-4.474,0 -8.842,0 -13.348,0 c0,-0.6860000000000014 0,-1.4460000000000002 0,-2.237 c-0.807,0 -1.477,0 -2.263,0 c0,-0.465 0,-0.7590000000000011 0,-1.122 c0,-4.449 0.0010000000000000022,-8.896 -0.0030000000000000087,-13.345 c0,-0.3380000000000007 0.03100000000000006,-0.6480000000000011 0.004000000000000008,-0.985 c-0.03700000000000001,0 -0.07500000000000002,0 -0.11200000000000013,0 v-0.0010000000000000022 c-0.6760000000000014,-0.002000000000000004 -1.412,-0.026000000000000058 -2.08,-0.026000000000000058 c0,6.001 0,12.049 0,17.994 c0.747000000000001,0.03800000000000001 1.4140000000000001,-0.0600000000000001 2.151,-0.022000000000000058 c0,0.7130000000000006 0,1.324 0,2.053 c0.773,0 1.469,0 2.2560000000000002,0 c0,0.788 0,1.526 0,2.229 c4.513,0 8.933,0 13.45,0 c0,-0.750000000000001 0,-1.5430000000000001 0,-2.229 h2.253 l0.08100000000000013,-2.063 l2.071,-0.017000000000000046 l-0.0010000000000000022,-1.231 c0,0 0.0010000000000000022,-10.454 0.0010000000000000022,-15.683 c0,-0.33100000000000057 0,-0.6630000000000013 0,-1.099 c-0.797,0 -1.466,0 -2.1470000000000002,0 C38.703399481773374,26.00320540332794 38.666399481773375,25.23520540332794 38.630399481773374,24.57620540332794 z" id="svg_13"/></g></g></svg>