<svg xmlns="http://www.w3.org/2000/svg" xmlns:xlink="http://www.w3.org/1999/xlink" version="1.1" style="" xml:space="preserve" width="99" height="99"><rect id="backgroundrect" width="100%" height="100%" x="0" y="0" fill="none" stroke="none" class="" style=""/><style type="text/css">
	.st0{display:none;}
	.st1{display:inline;}
</style><g class="currentLayer" style=""><title>Layer 1</title><g class="st0" id="svg_1"><g class="st1" id="svg_2"><rect x="74.5" y="71.39999389648438" width="6.199999809265137" height="6.199999809265137" id="svg_3"/><polygon points="18.69999998807907,65.19999998807907 18.69999998807907,58.99999922513962 12.500000178813934,58.99999922513962 12.500000178813934,65.19999998807907 12.500000178813934,71.39999693632126 18.69999998807907,71.39999693632126 " id="svg_4"/><polygon points="18.69999998807907,52.799998462200165 18.69999998807907,58.99999922513962 24.900000751018524,58.99999922513962 24.900000751018524,52.799998462200165 24.900000751018524,46.60000151395798 18.69999998807907,46.60000151395798 " id="svg_5"/><polygon points="80.69999998807907,65.19999998807907 80.69999998807907,71.39999693632126 86.89999693632126,71.39999693632126 86.89999693632126,65.19999998807907 86.89999693632126,58.99999922513962 80.69999998807907,58.99999922513962 " id="svg_6"/><polygon points="86.89999693632126,52.799998462200165 86.89999693632126,58.99999922513962 93.19999998807907,58.99999922513962 93.19999998807907,52.799998462200165 93.19999998807907,46.60000151395798 86.89999693632126,46.60000151395798 " id="svg_7"/><polygon points="93.19999998807907,34.19999998807907 86.89999693632126,34.19999998807907 80.69999998807907,34.19999998807907 74.50000303983688,34.19999998807907 74.50000303983688,27.999999225139618 74.50000303983688,21.800000369548798 68.29999846220016,21.800000369548798 62.10000151395798,21.800000369548798 55.900000751018524,21.800000369548798 49.69999998807907,21.800000369548798 43.49999922513962,21.800000369548798 37.299998462200165,21.800000369548798 31.099999606609344,21.800000369548798 31.099999606609344,15.599999606609344 24.900000751018524,15.599999606609344 18.69999998807907,15.599999606609344 12.500000178813934,15.599999606609344 6.199999988079071,15.599999606609344 6.199999988079071,21.800000369548798 0,21.800000369548798 0,27.999999225139618 0,34.19999998807907 0,40.400000751018524 0,46.60000151395798 0,52.799998462200165 0,58.99999922513962 0,65.19999998807907 0,71.39999693632126 0,77.60000151395798 6.199999988079071,77.60000151395798 6.199999988079071,83.79999846220016 12.500000178813934,83.79999846220016 18.69999998807907,83.79999846220016 24.900000751018524,83.79999846220016 31.099999606609344,83.79999846220016 37.299998462200165,83.79999846220016 43.49999922513962,83.79999846220016 49.69999998807907,83.79999846220016 55.900000751018524,83.79999846220016 62.10000151395798,83.79999846220016 68.29999846220016,83.79999846220016 74.50000303983688,83.79999846220016 74.50000303983688,77.60000151395798 68.29999846220016,77.60000151395798 62.10000151395798,77.60000151395798 55.900000751018524,77.60000151395798 49.69999998807907,77.60000151395798 43.49999922513962,77.60000151395798 37.299998462200165,77.60000151395798 31.099999606609344,77.60000151395798 24.900000751018524,77.60000151395798 18.69999998807907,77.60000151395798 12.500000178813934,77.60000151395798 12.500000178813934,71.39999693632126 6.199999988079071,71.39999693632126 6.199999988079071,65.19999998807907 6.199999988079071,58.99999922513962 6.199999988079071,52.799998462200165 6.199999988079071,46.60000151395798 6.199999988079071,40.400000751018524 6.199999988079071,34.19999998807907 6.199999988079071,27.999999225139618 12.500000178813934,27.999999225139618 12.500000178813934,21.800000369548798 18.69999998807907,21.800000369548798 24.900000751018524,21.800000369548798 24.900000751018524,27.999999225139618 31.099999606609344,27.999999225139618 37.299998462200165,27.999999225139618 43.49999922513962,27.999999225139618 49.69999998807907,27.999999225139618 55.900000751018524,27.999999225139618 62.10000151395798,27.999999225139618 68.29999846220016,27.999999225139618 68.29999846220016,34.19999998807907 62.10000151395798,34.19999998807907 55.900000751018524,34.19999998807907 49.69999998807907,34.19999998807907 43.49999922513962,34.19999998807907 37.299998462200165,34.19999998807907 31.099999606609344,34.19999998807907 24.900000751018524,34.19999998807907 24.900000751018524,40.400000751018524 24.900000751018524,46.60000151395798 31.099999606609344,46.60000151395798 31.099999606609344,40.400000751018524 37.299998462200165,40.400000751018524 43.49999922513962,40.400000751018524 49.69999998807907,40.400000751018524 55.900000751018524,40.400000751018524 62.10000151395798,40.400000751018524 68.29999846220016,40.400000751018524 74.50000303983688,40.400000751018524 80.69999998807907,40.400000751018524 86.89999693632126,40.400000751018524 93.19999998807907,40.400000751018524 93.19999998807907,46.60000151395798 99.39999693632126,46.60000151395798 99.39999693632126,40.400000751018524 99.39999693632126,34.19999998807907 " id="svg_8"/></g></g><g class="st0" id="svg_9"><g class="st1" id="svg_10"><rect x="21.80000114440918" y="6.199999809265137" width="6.199999809265137" height="6.199999809265137" id="svg_11"/><rect x="71.39999389648438" y="6.199999809265137" width="6.199999809265137" height="6.199999809265137" id="svg_12"/><rect x="21.80000114440918" y="55.900001525878906" width="6.199999809265137" height="6.199999809265137" id="svg_13"/><rect x="71.39999389648438" y="55.900001525878906" width="6.199999809265137" height="6.199999809265137" id="svg_14"/><polygon points="77.60000151395798,62.10000151395798 77.60000151395798,68.29999846220016 71.39999693632126,68.29999846220016 65.19999998807907,68.29999846220016 58.99999922513962,68.29999846220016 52.799998462200165,68.29999846220016 46.60000151395798,68.29999846220016 40.400000751018524,68.29999846220016 34.19999998807907,68.29999846220016 27.999999225139618,68.29999846220016 21.800000369548798,68.29999846220016 21.800000369548798,62.10000151395798 15.599999606609344,62.10000151395798 15.599999606609344,68.29999846220016 15.599999606609344,74.50000303983688 21.800000369548798,74.50000303983688 27.999999225139618,74.50000303983688 34.19999998807907,74.50000303983688 40.400000751018524,74.50000303983688 46.60000151395798,74.50000303983688 46.60000151395798,80.69999998807907 46.60000151395798,86.89999693632126 46.60000151395798,93.19999998807907 46.60000151395798,99.39999693632126 52.799998462200165,99.39999693632126 52.799998462200165,93.19999998807907 52.799998462200165,86.89999693632126 52.799998462200165,80.69999998807907 52.799998462200165,74.50000303983688 58.99999922513962,74.50000303983688 65.19999998807907,74.50000303983688 71.39999693632126,74.50000303983688 77.60000151395798,74.50000303983688 83.79999846220016,74.50000303983688 83.79999846220016,68.29999846220016 83.79999846220016,62.10000151395798 " id="svg_15"/><polygon points="40.400000751018524,6.199999988079071 46.60000151395798,6.199999988079071 52.799998462200165,6.199999988079071 58.99999922513962,6.199999988079071 65.19999998807907,6.199999988079071 71.39999693632126,6.199999988079071 71.39999693632126,0 65.19999998807907,0 58.99999922513962,0 52.799998462200165,0 46.60000151395798,0 40.400000751018524,0 34.19999998807907,0 27.999999225139618,0 27.999999225139618,6.199999988079071 34.19999998807907,6.199999988079071 " id="svg_16"/><polygon points="58.99999922513962,24.900000751018524 58.99999922513962,31.099999606609344 58.99999922513962,37.299998462200165 58.99999922513962,43.49999922513962 58.99999922513962,49.69999998807907 65.19999998807907,49.69999998807907 65.19999998807907,43.49999922513962 65.19999998807907,37.299998462200165 65.19999998807907,31.099999606609344 65.19999998807907,24.900000751018524 65.19999998807907,18.69999998807907 58.99999922513962,18.69999998807907 " id="svg_17"/><polygon points="40.400000751018524,43.49999922513962 40.400000751018524,37.299998462200165 40.400000751018524,31.099999606609344 40.400000751018524,24.900000751018524 40.400000751018524,18.69999998807907 34.19999998807907,18.69999998807907 34.19999998807907,24.900000751018524 34.19999998807907,31.099999606609344 34.19999998807907,37.299998462200165 34.19999998807907,43.49999922513962 34.19999998807907,49.69999998807907 40.400000751018524,49.69999998807907 " id="svg_18"/><rect x="28" y="12.5" width="6.199999809265137" height="6.199999809265137" id="svg_19"/><rect x="65.19999694824219" y="12.5" width="6.199999809265137" height="6.199999809265137" id="svg_20"/><rect x="28" y="49.70000076293945" width="6.199999809265137" height="6.199999809265137" id="svg_21"/><rect x="65.19999694824219" y="49.70000076293945" width="6.199999809265137" height="6.199999809265137" id="svg_22"/></g></g><g class="st0" id="svg_23"><g class="st1" id="svg_24"><rect x="62.10000228881836" y="9.300000190734863" width="6.199999809265137" height="6.199999809265137" id="svg_25"/><rect x="24.900001525878906" y="9.300000190734863" width="6.199999809265137" height="6.199999809265137" id="svg_26"/><rect x="43.5" y="9.300000190734863" width="6.199999809265137" height="6.199999809265137" id="svg_27"/><rect x="31.100000381469727" y="3.1000001430511475" width="6.199999809265137" height="6.199999809265137" id="svg_28"/><rect x="49.70000076293945" y="3.1000001430511475" width="6.199999809265137" height="6.199999809265137" id="svg_29"/><rect x="68.29999542236328" y="3.1000001430511475" width="6.199999809265137" height="6.199999809265137" id="svg_30"/><polygon points="62.10000151395798,90.10000151395798 55.900000751018524,90.10000151395798 49.69999998807907,90.10000151395798 43.49999922513962,90.10000151395798 37.299998462200165,90.10000151395798 31.099999606609344,90.10000151395798 24.900000751018524,90.10000151395798 24.900000751018524,96.29999846220016 31.099999606609344,96.29999846220016 37.299998462200165,96.29999846220016 43.49999922513962,96.29999846220016 49.69999998807907,96.29999846220016 55.900000751018524,96.29999846220016 62.10000151395798,96.29999846220016 68.29999846220016,96.29999846220016 74.50000303983688,96.29999846220016 74.50000303983688,90.10000151395798 68.29999846220016,90.10000151395798 " id="svg_31"/><polygon points="93.19999998807907,40.400000751018524 93.19999998807907,46.60000151395798 93.19999998807907,52.799998462200165 93.19999998807907,58.99999922513962 93.19999998807907,65.19999998807907 99.39999693632126,65.19999998807907 99.39999693632126,58.99999922513962 99.39999693632126,52.799998462200165 99.39999693632126,46.60000151395798 99.39999693632126,40.400000751018524 " id="svg_32"/><path d="M80.69999998807907,65.19999998807907 v-6.2 v-6.2 v-6.2 v-6.2 h6.2 h6.2 v-6.2 h-6.2 H80.69999998807907 v-6.2 v-6.2 h-6.2 h-6.2 h-6.2 h-6.2 H49.69999998807907 h-6.2 h-6.2 h-6.2 h-6.2 H18.69999998807907 v6.2 v6.2 v6.2 v6.2 v6.2 v6.2 v6.2 v6.2 v6.2 h-6.2 H6.199999988079071 H-1.1920928910669204e-8 v6.2 h6.2 h6.2 v6.2 H18.69999998807907 h6.2 v-6.2 h6.2 h6.2 h6.2 H49.69999998807907 h6.2 h6.2 h6.2 h6.2 v6.2 H80.69999998807907 h6.2 v-6.2 h6.2 h6.2 v-6.2 h-6.2 h-6.2 H80.69999998807907 v-6.2 h6.2 h6.2 v-6.2 h-6.2 H80.69999998807907 zM74.49999998807907,77.59999998807908 h-6.2 h-6.2 h-6.2 H49.69999998807907 h-6.2 h-6.2 h-6.2 h-6.2 v-6.2 v-6.2 v-6.2 v-6.2 v-6.2 v-6.2 v-6.2 v-6.2 h6.2 h6.2 h6.2 H49.69999998807907 h6.2 h6.2 h6.2 h6.2 v6.2 v6.2 v6.2 v6.2 v6.2 v6.2 v6.2 V77.59999998807908 z" id="svg_33"/></g></g><g class="st0" id="svg_34"><g class="st1" id="svg_35"><polygon points="93.19999998807907,18.69999998807907 93.19999998807907,24.900000751018524 93.19999998807907,31.099999606609344 86.89999693632126,31.099999606609344 80.69999998807907,31.099999606609344 74.50000303983688,31.099999606609344 68.29999846220016,31.099999606609344 62.10000151395798,31.099999606609344 55.900000751018524,31.099999606609344 49.69999998807907,31.099999606609344 43.49999922513962,31.099999606609344 37.299998462200165,31.099999606609344 31.099999606609344,31.099999606609344 24.900000751018524,31.099999606609344 18.69999998807907,31.099999606609344 12.399999797344208,31.099999606609344 6.199999988079071,31.099999606609344 6.199999988079071,24.900000751018524 6.199999988079071,18.69999998807907 0,18.69999998807907 0,24.900000751018524 0,31.099999606609344 0,37.299998462200165 0,43.49999922513962 0,49.69999998807907 0,55.900000751018524 0,62.10000151395798 0,68.29999846220016 0,74.50000303983688 0,80.69999998807907 0,86.89999693632126 6.199999988079071,86.89999693632126 6.199999988079071,80.69999998807907 6.199999988079071,74.50000303983688 6.199999988079071,68.29999846220016 6.199999988079071,62.10000151395798 6.199999988079071,55.900000751018524 6.199999988079071,49.69999998807907 6.199999988079071,43.49999922513962 6.199999988079071,37.299998462200165 12.399999797344208,37.299998462200165 18.69999998807907,37.299998462200165 24.900000751018524,37.299998462200165 31.099999606609344,37.299998462200165 37.299998462200165,37.299998462200165 43.49999922513962,37.299998462200165 49.69999998807907,37.299998462200165 55.900000751018524,37.299998462200165 62.10000151395798,37.299998462200165 68.29999846220016,37.299998462200165 74.50000303983688,37.299998462200165 80.69999998807907,37.299998462200165 86.89999693632126,37.299998462200165 93.19999998807907,37.299998462200165 93.19999998807907,43.49999922513962 93.19999998807907,49.69999998807907 93.19999998807907,55.900000751018524 93.19999998807907,62.10000151395798 93.19999998807907,68.29999846220016 93.19999998807907,74.50000303983688 93.19999998807907,80.69999998807907 93.19999998807907,86.89999693632126 99.39999693632126,86.89999693632126 99.39999693632126,80.69999998807907 99.39999693632126,74.50000303983688 99.39999693632126,68.29999846220016 99.39999693632126,62.10000151395798 99.39999693632126,55.900000751018524 99.39999693632126,49.69999998807907 99.39999693632126,43.49999922513962 99.39999693632126,37.299998462200165 99.39999693632126,31.099999606609344 99.39999693632126,24.900000751018524 99.39999693632126,18.69999998807907 " id="svg_36"/><path d="M74.49999998807907,43.49999998807907 h-6.2 h-6.2 h-6.2 V49.69999998807907 H49.69999998807907 v6.2 v6.2 v6.2 h6.2 h6.2 h6.2 v6.2 h-6.2 h-6.2 V80.69999998807907 h6.2 h6.2 h6.2 v-6.2 H80.69999998807907 v-6.2 v-6.2 v-6.2 V49.69999998807907 h-6.2 V43.49999998807907 zM68.29999998807907,55.899999988079074 v6.2 h-6.2 v-6.2 V49.69999998807907 h6.2 V55.899999988079074 z" id="svg_37"/><polygon points="37.299998462200165,68.29999846220016 37.299998462200165,62.10000151395798 37.299998462200165,55.900000751018524 37.299998462200165,49.69999998807907 37.299998462200165,43.49999922513962 31.099999606609344,43.49999922513962 24.900000751018524,43.49999922513962 24.900000751018524,49.69999998807907 18.69999998807907,49.69999998807907 18.69999998807907,55.900000751018524 24.900000751018524,55.900000751018524 24.900000751018524,62.10000151395798 24.900000751018524,68.29999846220016 24.900000751018524,74.50000303983688 18.69999998807907,74.50000303983688 18.69999998807907,80.69999998807907 24.900000751018524,80.69999998807907 31.099999606609344,80.69999998807907 37.299998462200165,80.69999998807907 43.49999922513962,80.69999998807907 43.49999922513962,74.50000303983688 37.299998462200165,74.50000303983688 " id="svg_38"/><polygon points="80.69999998807907,86.89999693632126 74.50000303983688,86.89999693632126 68.29999846220016,86.89999693632126 62.10000151395798,86.89999693632126 55.900000751018524,86.89999693632126 49.69999998807907,86.89999693632126 43.49999922513962,86.89999693632126 37.299998462200165,86.89999693632126 31.099999606609344,86.89999693632126 24.900000751018524,86.89999693632126 18.69999998807907,86.89999693632126 12.399999797344208,86.89999693632126 6.199999988079071,86.89999693632126 6.199999988079071,93.19999998807907 12.399999797344208,93.19999998807907 18.69999998807907,93.19999998807907 24.900000751018524,93.19999998807907 31.099999606609344,93.19999998807907 37.299998462200165,93.19999998807907 43.49999922513962,93.19999998807907 49.69999998807907,93.19999998807907 55.900000751018524,93.19999998807907 62.10000151395798,93.19999998807907 68.29999846220016,93.19999998807907 74.50000303983688,93.19999998807907 80.69999998807907,93.19999998807907 86.89999693632126,93.19999998807907 93.19999998807907,93.19999998807907 93.19999998807907,86.89999693632126 86.89999693632126,86.89999693632126 " id="svg_39"/><polygon points="18.69999998807907,18.69999998807907 18.69999998807907,24.900000751018524 24.900000751018524,24.900000751018524 31.099999606609344,24.900000751018524 31.099999606609344,18.69999998807907 37.299998462200165,18.69999998807907 43.49999922513962,18.69999998807907 49.69999998807907,18.69999998807907 55.900000751018524,18.69999998807907 62.10000151395798,18.69999998807907 68.29999846220016,18.69999998807907 68.29999846220016,24.900000751018524 74.50000303983688,24.900000751018524 80.69999998807907,24.900000751018524 80.69999998807907,18.69999998807907 86.89999693632126,18.69999998807907 93.19999998807907,18.69999998807907 93.19999998807907,12.500000178813934 86.89999693632126,12.500000178813934 80.69999998807907,12.500000178813934 80.69999998807907,6.199999988079071 74.50000303983688,6.199999988079071 68.29999846220016,6.199999988079071 68.29999846220016,12.500000178813934 62.10000151395798,12.500000178813934 55.900000751018524,12.500000178813934 49.69999998807907,12.500000178813934 43.49999922513962,12.500000178813934 37.299998462200165,12.500000178813934 31.099999606609344,12.500000178813934 31.099999606609344,6.199999988079071 24.900000751018524,6.199999988079071 18.69999998807907,6.199999988079071 18.69999998807907,12.500000178813934 12.399999797344208,12.500000178813934 6.199999988079071,12.500000178813934 6.199999988079071,18.69999998807907 12.399999797344208,18.69999998807907 " id="svg_40"/></g></g><g class="st0" id="svg_41"><g class="st1" id="svg_42"><polygon points="93.19999998807907,21.800000369548798 93.19999998807907,27.999999225139618 86.89999693632126,27.999999225139618 86.89999693632126,34.19999998807907 93.19999998807907,34.19999998807907 93.19999998807907,40.400000751018524 93.19999998807907,46.60000151395798 93.19999998807907,52.799998462200165 93.19999998807907,58.99999922513962 93.19999998807907,65.19999998807907 93.19999998807907,71.39999693632126 86.89999693632126,71.39999693632126 86.89999693632126,77.60000151395798 80.69999998807907,77.60000151395798 74.50000303983688,77.60000151395798 68.29999846220016,77.60000151395798 62.10000151395798,77.60000151395798 55.900000751018524,77.60000151395798 49.69999998807907,77.60000151395798 43.49999922513962,77.60000151395798 37.299998462200165,77.60000151395798 31.099999606609344,77.60000151395798 24.900000751018524,77.60000151395798 18.69999998807907,77.60000151395798 12.399999797344208,77.60000151395798 12.399999797344208,71.39999693632126 6.199999988079071,71.39999693632126 6.199999988079071,65.19999998807907 6.199999988079071,58.99999922513962 6.199999988079071,52.799998462200165 6.199999988079071,46.60000151395798 6.199999988079071,40.400000751018524 6.199999988079071,34.19999998807907 12.399999797344208,34.19999998807907 12.399999797344208,27.999999225139618 6.199999988079071,27.999999225139618 6.199999988079071,21.800000369548798 0,21.800000369548798 0,27.999999225139618 0,34.19999998807907 0,40.400000751018524 0,46.60000151395798 0,52.799998462200165 0,58.99999922513962 0,65.19999998807907 0,71.39999693632126 0,77.60000151395798 6.199999988079071,77.60000151395798 6.199999988079071,83.79999846220016 12.399999797344208,83.79999846220016 18.69999998807907,83.79999846220016 24.900000751018524,83.79999846220016 31.099999606609344,83.79999846220016 37.299998462200165,83.79999846220016 43.49999922513962,83.79999846220016 49.69999998807907,83.79999846220016 55.900000751018524,83.79999846220016 62.10000151395798,83.79999846220016 68.29999846220016,83.79999846220016 74.50000303983688,83.79999846220016 80.69999998807907,83.79999846220016 86.89999693632126,83.79999846220016 93.19999998807907,83.79999846220016 93.19999998807907,77.60000151395798 99.39999693632126,77.60000151395798 99.39999693632126,71.39999693632126 99.39999693632126,65.19999998807907 99.39999693632126,58.99999922513962 99.39999693632126,52.799998462200165 99.39999693632126,46.60000151395798 99.39999693632126,40.400000751018524 99.39999693632126,34.19999998807907 99.39999693632126,27.999999225139618 99.39999693632126,21.800000369548798 " id="svg_43"/><rect x="68.29999542236328" y="52.79999923706055" width="6.199999809265137" height="6.199999809265137" id="svg_44"/><rect x="24.900001525878906" y="52.79999923706055" width="6.199999809265137" height="6.199999809265137" id="svg_45"/><polygon points="49.69999998807907,58.99999922513962 55.900000751018524,58.99999922513962 55.900000751018524,52.799998462200165 49.69999998807907,52.799998462200165 43.49999922513962,52.799998462200165 43.49999922513962,58.99999922513962 " id="svg_46"/><polygon points="37.299998462200165,52.799998462200165 43.49999922513962,52.799998462200165 43.49999922513962,46.60000151395798 37.299998462200165,46.60000151395798 31.099999606609344,46.60000151395798 31.099999606609344,52.799998462200165 " id="svg_47"/><polygon points="68.29999846220016,52.799998462200165 68.29999846220016,46.60000151395798 62.10000151395798,46.60000151395798 55.900000751018524,46.60000151395798 55.900000751018524,52.799998462200165 62.10000151395798,52.799998462200165 " id="svg_48"/><polygon points="24.900000751018524,46.60000151395798 31.099999606609344,46.60000151395798 31.099999606609344,40.400000751018524 24.900000751018524,40.400000751018524 18.69999998807907,40.400000751018524 18.69999998807907,46.60000151395798 " id="svg_49"/><polygon points="80.69999998807907,46.60000151395798 80.69999998807907,40.400000751018524 74.50000303983688,40.400000751018524 68.29999846220016,40.400000751018524 68.29999846220016,46.60000151395798 74.50000303983688,46.60000151395798 " id="svg_50"/><rect x="18.700000762939453" y="59" width="6.199999809265137" height="6.199999809265137" id="svg_51"/><rect x="74.5" y="59" width="6.199999809265137" height="6.199999809265137" id="svg_52"/><rect x="12.399999618530273" y="65.19999694824219" width="6.199999809265137" height="6.199999809265137" id="svg_53"/><rect x="80.69999694824219" y="65.19999694824219" width="6.199999809265137" height="6.199999809265137" id="svg_54"/><rect x="12.399999618530273" y="34.20000076293945" width="6.199999809265137" height="6.199999809265137" id="svg_55"/><rect x="80.69999694824219" y="34.20000076293945" width="6.199999809265137" height="6.199999809265137" id="svg_56"/><polygon points="18.69999998807907,21.800000369548798 24.900000751018524,21.800000369548798 31.099999606609344,21.800000369548798 37.299998462200165,21.800000369548798 43.49999922513962,21.800000369548798 49.69999998807907,21.800000369548798 55.900000751018524,21.800000369548798 62.10000151395798,21.800000369548798 68.29999846220016,21.800000369548798 74.50000303983688,21.800000369548798 80.69999998807907,21.800000369548798 86.89999693632126,21.800000369548798 93.19999998807907,21.800000369548798 93.19999998807907,15.599999606609344 86.89999693632126,15.599999606609344 80.69999998807907,15.599999606609344 74.50000303983688,15.599999606609344 68.29999846220016,15.599999606609344 62.10000151395798,15.599999606609344 55.900000751018524,15.599999606609344 49.69999998807907,15.599999606609344 43.49999922513962,15.599999606609344 37.299998462200165,15.599999606609344 31.099999606609344,15.599999606609344 24.900000751018524,15.599999606609344 18.69999998807907,15.599999606609344 12.399999797344208,15.599999606609344 6.199999988079071,15.599999606609344 6.199999988079071,21.800000369548798 12.399999797344208,21.800000369548798 " id="svg_57"/></g></g><polygon points="6.199999988079071,80.69999998807907 6.199999988079071,74.50000303983688 6.199999988079071,68.29999846220016 6.199999988079071,62.10000151395798 6.199999988079071,55.900000751018524 6.199999988079071,49.69999998807907 6.199999988079071,43.49999922513962 6.199999988079071,37.299998462200165 6.199999988079071,31.099999606609344 6.199999988079071,24.900000751018524 6.199999988079071,18.69999998807907 0,18.69999998807907 0,24.900000751018524 0,31.099999606609344 0,37.299998462200165 0,43.49999922513962 0,49.69999998807907 0,55.900000751018524 0,62.10000151395798 0,68.29999846220016 0,74.50000303983688 0,80.69999998807907 0,86.89999693632126 0,93.19999998807907 6.199999988079071,93.19999998807907 6.199999988079071,86.89999693632126 " id="svg_60" class="" fill="#ffffff" fill-opacity="1"/><polygon points="12.399999797344208,24.900000751018524 12.399999797344208,31.099999606609344 12.399999797344208,37.299998462200165 12.399999797344208,43.49999922513962 12.399999797344208,49.69999998807907 12.399999797344208,55.900000751018524 12.399999797344208,62.10000151395798 12.399999797344208,68.29999846220016 12.399999797344208,74.50000303983688 12.399999797344208,80.69999998807907 18.69999998807907,80.69999998807907 18.69999998807907,74.50000303983688 18.69999998807907,68.29999846220016 18.69999998807907,62.10000151395798 18.69999998807907,55.900000751018524 18.69999998807907,49.69999998807907 18.69999998807907,43.49999922513962 18.69999998807907,37.299998462200165 18.69999998807907,31.099999606609344 18.69999998807907,24.900000751018524 18.69999998807907,18.69999998807907 18.69999998807907,12.399999797344208 18.69999998807907,6.199999988079071 12.399999797344208,6.199999988079071 12.399999797344208,12.399999797344208 6.199999988079071,12.399999797344208 6.199999988079071,18.69999998807907 12.399999797344208,18.69999998807907 " id="svg_61" class="" fill="#ffffff" fill-opacity="1"/><polygon points="93.19999998807907,18.69999998807907 93.19999998807907,24.900000751018524 93.19999998807907,31.099999606609344 93.19999998807907,37.299998462200165 93.19999998807907,43.49999922513962 93.19999998807907,49.69999998807907 93.19999998807907,55.900000751018524 93.19999998807907,62.10000151395798 93.19999998807907,68.29999846220016 93.19999998807907,74.50000303983688 93.19999998807907,80.69999998807907 93.19999998807907,86.89999693632126 93.19999998807907,93.19999998807907 99.39999693632126,93.19999998807907 99.39999693632126,86.89999693632126 99.39999693632126,80.69999998807907 99.39999693632126,74.50000303983688 99.39999693632126,68.29999846220016 99.39999693632126,62.10000151395798 99.39999693632126,55.900000751018524 99.39999693632126,49.69999998807907 99.39999693632126,43.49999922513962 99.39999693632126,37.299998462200165 99.39999693632126,31.099999606609344 99.39999693632126,24.900000751018524 99.39999693632126,18.69999998807907 " id="svg_62" class="" fill="#ffffff" fill-opacity="1"/><path d="M68.29999998807907,24.89999998807907 h-6.2 h-6.2 H49.69999998807907 v6.2 v6.2 v6.2 h6.2 h6.2 h6.2 h6.2 H80.69999998807907 v-6.2 v-6.2 v-6.2 h-6.2 H68.29999998807907 zM74.49999998807907,37.29999998807907 h-6.2 h-6.2 h-6.2 v-6.2 h6.2 h6.2 h6.2 V37.29999998807907 z" id="svg_63" class="" fill="#ffffff" fill-opacity="1"/><rect x="49.70000076293945" y="74.5" width="6.199999809265137" height="6.199999809265137" id="svg_64" class="" fill="#ffffff" fill-opacity="1"/><rect x="62.10000228881836" y="74.5" width="6.199999809265137" height="6.199999809265137" id="svg_65" class="" fill="#ffffff" fill-opacity="1"/><rect x="74.5" y="74.5" width="6.199999809265137" height="6.199999809265137" id="svg_66" class="" fill="#ffffff" fill-opacity="1"/><rect x="49.70000076293945" y="62.10000228881836" width="6.199999809265137" height="6.199999809265137" id="svg_67" class="" fill="#ffffff" fill-opacity="1"/><rect x="62.10000228881836" y="62.10000228881836" width="6.199999809265137" height="6.199999809265137" id="svg_68" class="" fill="#ffffff" fill-opacity="1"/><rect x="74.5" y="62.10000228881836" width="6.199999809265137" height="6.199999809265137" id="svg_69" class="" fill="#ffffff" fill-opacity="1"/><rect x="49.70000076293945" y="49.70000076293945" width="6.199999809265137" height="6.199999809265137" id="svg_70" class="" fill="#ffffff" fill-opacity="1"/><rect x="62.10000228881836" y="49.70000076293945" width="6.199999809265137" height="6.199999809265137" id="svg_71" class="" fill="#ffffff" fill-opacity="1"/><rect x="74.5" y="49.70000076293945" width="6.199999809265137" height="6.199999809265137" id="svg_72" class="" fill="#ffffff" fill-opacity="1"/><polygon points="80.69999998807907,93.19999998807907 74.50000303983688,93.19999998807907 68.29999846220016,93.19999998807907 62.10000151395798,93.19999998807907 55.900000751018524,93.19999998807907 49.69999998807907,93.19999998807907 43.49999922513962,93.19999998807907 37.299998462200165,93.19999998807907 31.099999606609344,93.19999998807907 24.900000751018524,93.19999998807907 18.69999998807907,93.19999998807907 12.399999797344208,93.19999998807907 6.199999988079071,93.19999998807907 6.199999988079071,99.39999693632126 12.399999797344208,99.39999693632126 18.69999998807907,99.39999693632126 24.900000751018524,99.39999693632126 31.099999606609344,99.39999693632126 37.299998462200165,99.39999693632126 43.49999922513962,99.39999693632126 49.69999998807907,99.39999693632126 55.900000751018524,99.39999693632126 62.10000151395798,99.39999693632126 68.29999846220016,99.39999693632126 74.50000303983688,99.39999693632126 80.69999998807907,99.39999693632126 86.89999693632126,99.39999693632126 93.19999998807907,99.39999693632126 93.19999998807907,93.19999998807907 86.89999693632126,93.19999998807907 " id="svg_73" class="" fill="#ffffff" fill-opacity="1"/><polygon points="31.099999606609344,6.199999988079071 37.299998462200165,6.199999988079071 37.299998462200165,0 31.099999606609344,0 24.900000751018524,0 18.69999998807907,0 18.69999998807907,6.199999988079071 24.900000751018524,6.199999988079071 " id="svg_74" class="" fill="#ffffff" fill-opacity="1"/><polygon points="24.900000751018524,80.69999998807907 18.69999998807907,80.69999998807907 18.69999998807907,86.89999693632126 24.900000751018524,86.89999693632126 31.099999606609344,86.89999693632126 37.299998462200165,86.89999693632126 37.299998462200165,80.69999998807907 31.099999606609344,80.69999998807907 " id="svg_75" class="" fill="#ffffff" fill-opacity="1"/><polygon points="37.299998462200165,18.69999998807907 37.299998462200165,24.900000751018524 37.299998462200165,31.099999606609344 37.299998462200165,37.299998462200165 37.299998462200165,43.49999922513962 37.299998462200165,49.69999998807907 37.299998462200165,55.900000751018524 37.299998462200165,62.10000151395798 37.299998462200165,68.29999846220016 37.299998462200165,74.50000303983688 37.299998462200165,80.69999998807907 43.49999922513962,80.69999998807907 43.49999922513962,74.50000303983688 43.49999922513962,68.29999846220016 43.49999922513962,62.10000151395798 43.49999922513962,55.900000751018524 43.49999922513962,49.69999998807907 43.49999922513962,43.49999922513962 43.49999922513962,37.299998462200165 43.49999922513962,31.099999606609344 43.49999922513962,24.900000751018524 43.49999922513962,18.69999998807907 49.69999998807907,18.69999998807907 55.900000751018524,18.69999998807907 62.10000151395798,18.69999998807907 68.29999846220016,18.69999998807907 74.50000303983688,18.69999998807907 80.69999998807907,18.69999998807907 86.89999693632126,18.69999998807907 93.19999998807907,18.69999998807907 93.19999998807907,12.399999797344208 86.89999693632126,12.399999797344208 80.69999998807907,12.399999797344208 74.50000303983688,12.399999797344208 68.29999846220016,12.399999797344208 62.10000151395798,12.399999797344208 55.900000751018524,12.399999797344208 49.69999998807907,12.399999797344208 43.49999922513962,12.399999797344208 43.49999922513962,6.199999988079071 37.299998462200165,6.199999988079071 37.299998462200165,12.399999797344208 " id="svg_76" class="" fill="#ffffff" fill-opacity="1"/><g class="st0" id="svg_77"><g class="st1" id="svg_78"><polygon points="68.29999846220016,93.19999998807907 62.10000151395798,93.19999998807907 55.900000751018524,93.19999998807907 49.69999998807907,93.19999998807907 43.49999922513962,93.19999998807907 37.299998462200165,93.19999998807907 31.099999606609344,93.19999998807907 24.900000751018524,93.19999998807907 18.69999998807907,93.19999998807907 18.69999998807907,99.39999693632126 24.900000751018524,99.39999693632126 31.099999606609344,99.39999693632126 37.299998462200165,99.39999693632126 43.49999922513962,99.39999693632126 49.69999998807907,99.39999693632126 55.900000751018524,99.39999693632126 62.10000151395798,99.39999693632126 68.29999846220016,99.39999693632126 74.50000303983688,99.39999693632126 80.69999998807907,99.39999693632126 80.69999998807907,93.19999998807907 74.50000303983688,93.19999998807907 " id="svg_79"/><polygon points="31.099999606609344,6.199999988079071 37.299998462200165,6.199999988079071 43.49999922513962,6.199999988079071 49.69999998807907,6.199999988079071 55.900000751018524,6.199999988079071 62.10000151395798,6.199999988079071 68.29999846220016,6.199999988079071 74.50000303983688,6.199999988079071 80.69999998807907,6.199999988079071 80.69999998807907,0 74.50000303983688,0 68.29999846220016,0 62.10000151395798,0 55.900000751018524,0 49.69999998807907,0 43.49999922513962,0 37.299998462200165,0 31.099999606609344,0 24.900000751018524,0 18.69999998807907,0 18.69999998807907,6.199999988079071 24.900000751018524,6.199999988079071 " id="svg_80"/><path d="M37.29999998807907,31.09999998807907 h6.2 H49.69999998807907 h6.2 h6.2 h6.2 h6.2 v-6.2 V18.69999998807907 v-6.2 h-6.2 h-6.2 h-6.2 H49.69999998807907 h-6.2 h-6.2 h-6.2 h-6.2 V18.69999998807907 v6.2 v6.2 h6.2 H37.29999998807907 zM68.29999998807907,18.69999998807907 v6.2 h-6.2 V18.69999998807907 H68.29999998807907 zM55.899999988079074,18.69999998807907 v6.2 H49.69999998807907 V18.69999998807907 H55.899999988079074 zM43.49999998807907,18.69999998807907 v6.2 h-6.2 V18.69999998807907 H43.49999998807907 z" id="svg_81"/><polygon points="24.900000751018524,49.69999998807907 24.900000751018524,55.900000751018524 24.900000751018524,62.10000151395798 31.099999606609344,62.10000151395798 37.299998462200165,62.10000151395798 37.299998462200165,55.900000751018524 37.299998462200165,49.69999998807907 31.099999606609344,49.69999998807907 " id="svg_82"/><polygon points="43.49999922513962,49.69999998807907 43.49999922513962,55.900000751018524 43.49999922513962,62.10000151395798 49.69999998807907,62.10000151395798 55.900000751018524,62.10000151395798 55.900000751018524,55.900000751018524 55.900000751018524,49.69999998807907 49.69999998807907,49.69999998807907 " id="svg_83"/><polygon points="62.10000151395798,49.69999998807907 62.10000151395798,55.900000751018524 62.10000151395798,62.10000151395798 68.29999846220016,62.10000151395798 74.50000303983688,62.10000151395798 74.50000303983688,55.900000751018524 74.50000303983688,49.69999998807907 68.29999846220016,49.69999998807907 " id="svg_84"/><polygon points="24.900000751018524,68.29999846220016 24.900000751018524,74.50000303983688 24.900000751018524,80.69999998807907 31.099999606609344,80.69999998807907 37.299998462200165,80.69999998807907 37.299998462200165,74.50000303983688 37.299998462200165,68.29999846220016 31.099999606609344,68.29999846220016 " id="svg_85"/><polygon points="43.49999922513962,68.29999846220016 43.49999922513962,74.50000303983688 43.49999922513962,80.69999998807907 49.69999998807907,80.69999998807907 55.900000751018524,80.69999998807907 55.900000751018524,74.50000303983688 55.900000751018524,68.29999846220016 49.69999998807907,68.29999846220016 " id="svg_86"/><polygon points="62.10000151395798,68.29999846220016 62.10000151395798,74.50000303983688 62.10000151395798,80.69999998807907 68.29999846220016,80.69999998807907 74.50000303983688,80.69999998807907 74.50000303983688,74.50000303983688 74.50000303983688,68.29999846220016 68.29999846220016,68.29999846220016 " id="svg_87"/><polygon points="80.69999998807907,6.199999988079071 80.69999998807907,12.399999797344208 80.69999998807907,18.69999998807907 80.69999998807907,24.900000751018524 80.69999998807907,31.099999606609344 80.69999998807907,37.299998462200165 74.50000303983688,37.299998462200165 68.29999846220016,37.299998462200165 62.10000151395798,37.299998462200165 55.900000751018524,37.299998462200165 49.69999998807907,37.299998462200165 43.49999922513962,37.299998462200165 37.299998462200165,37.299998462200165 31.099999606609344,37.299998462200165 24.900000751018524,37.299998462200165 18.69999998807907,37.299998462200165 18.69999998807907,31.099999606609344 18.69999998807907,24.900000751018524 18.69999998807907,18.69999998807907 18.69999998807907,12.399999797344208 18.69999998807907,6.199999988079071 12.500000178813934,6.199999988079071 12.500000178813934,12.399999797344208 12.500000178813934,18.69999998807907 12.500000178813934,24.900000751018524 12.500000178813934,31.099999606609344 12.500000178813934,37.299998462200165 12.500000178813934,43.49999922513962 12.500000178813934,49.69999998807907 12.500000178813934,55.900000751018524 12.500000178813934,62.10000151395798 12.500000178813934,68.29999846220016 12.500000178813934,74.50000303983688 12.500000178813934,80.69999998807907 12.500000178813934,86.89999693632126 12.500000178813934,93.19999998807907 18.69999998807907,93.19999998807907 18.69999998807907,86.89999693632126 18.69999998807907,80.69999998807907 18.69999998807907,74.50000303983688 18.69999998807907,68.29999846220016 18.69999998807907,62.10000151395798 18.69999998807907,55.900000751018524 18.69999998807907,49.69999998807907 18.69999998807907,43.49999922513962 24.900000751018524,43.49999922513962 31.099999606609344,43.49999922513962 37.299998462200165,43.49999922513962 43.49999922513962,43.49999922513962 49.69999998807907,43.49999922513962 55.900000751018524,43.49999922513962 62.10000151395798,43.49999922513962 68.29999846220016,43.49999922513962 74.50000303983688,43.49999922513962 80.69999998807907,43.49999922513962 80.69999998807907,49.69999998807907 80.69999998807907,55.900000751018524 80.69999998807907,62.10000151395798 80.69999998807907,68.29999846220016 80.69999998807907,74.50000303983688 80.69999998807907,80.69999998807907 80.69999998807907,86.89999693632126 80.69999998807907,93.19999998807907 86.89999693632126,93.19999998807907 86.89999693632126,86.89999693632126 86.89999693632126,80.69999998807907 86.89999693632126,74.50000303983688 86.89999693632126,68.29999846220016 86.89999693632126,62.10000151395798 86.89999693632126,55.900000751018524 86.89999693632126,49.69999998807907 86.89999693632126,43.49999922513962 86.89999693632126,37.299998462200165 86.89999693632126,31.099999606609344 86.89999693632126,24.900000751018524 86.89999693632126,18.69999998807907 86.89999693632126,12.399999797344208 86.89999693632126,6.199999988079071 " id="svg_88"/></g></g><g class="st0" id="svg_89"><g class="st1" id="svg_90"><rect x="74.5" y="83.79999542236328" width="6.199999809265137" height="6.199999809265137" id="svg_91"/><rect x="68.29999542236328" y="9.300000190734863" width="6.199999809265137" height="6.199999809265137" id="svg_92"/><polygon points="80.69999998807907,77.60000151395798 80.69999998807907,83.79999846220016 86.89999693632126,83.79999846220016 86.89999693632126,77.60000151395798 86.89999693632126,71.39999693632126 80.69999998807907,71.39999693632126 " id="svg_93"/><polygon points="86.89999693632126,65.19999998807907 86.89999693632126,71.39999693632126 93.19999998807907,71.39999693632126 93.19999998807907,65.19999998807907 93.19999998807907,58.99999922513962 86.89999693632126,58.99999922513962 " id="svg_94"/><path d="M93.19999998807907,46.59999998807907 h-6.2 v-6.2 v-6.2 v-6.2 v-6.2 H80.69999998807907 v-6.2 h-6.2 v6.2 h-6.2 h-6.2 v-6.2 V9.29999998807907 h6.2 V3.099999988079071 h-6.2 h-6.2 H49.69999998807907 h-6.2 h-6.2 h-6.2 h-6.2 v6.2 H18.69999998807907 h-6.2 v6.2 v6.2 v6.2 H6.199999988079071 v6.2 H-1.1920928910669204e-8 v6.2 v6.2 v6.2 v6.2 v6.2 v6.2 v6.2 v6.2 v6.2 h6.2 v6.2 h6.2 H18.69999998807907 h6.2 h6.2 h6.2 h6.2 H49.69999998807907 h6.2 h6.2 h6.2 h6.2 v-6.2 h-6.2 h-6.2 h-6.2 H49.69999998807907 h-6.2 h-6.2 h-6.2 h-6.2 H18.69999998807907 h-6.2 v-6.2 H6.199999988079071 v-6.2 v-6.2 v-6.2 v-6.2 v-6.2 v-6.2 v-6.2 h6.2 v6.2 v6.2 v6.2 v6.2 v6.2 v6.2 v6.2 H18.69999998807907 v-6.2 v-6.2 h6.2 v-6.2 v-6.2 H18.69999998807907 v-6.2 v-6.2 v-6.2 v-6.2 v-6.2 v-6.2 v-6.2 h6.2 v6.2 v6.2 v6.2 v6.2 v6.2 v6.2 v6.2 h6.2 v-6.2 h6.2 h6.2 H49.69999998807907 h6.2 h6.2 h6.2 h6.2 H80.69999998807907 h6.2 h6.2 v6.2 h6.2 v-6.2 v-6.2 H93.19999998807907 zM74.49999998807907,46.59999998807907 h-6.2 h-6.2 h-6.2 H49.69999998807907 h-6.2 h-6.2 h-6.2 v-6.2 v-6.2 v-6.2 v-6.2 v-6.2 V9.29999998807907 h6.2 h6.2 H49.69999998807907 h6.2 v6.2 v6.2 v6.2 h6.2 h6.2 h6.2 H80.69999998807907 v6.2 v6.2 v6.2 H74.49999998807907 z" id="svg_95"/></g></g><g class="st0" id="svg_96"><g class="st1" id="svg_97"><polygon points="15.599999606609344,52.799998462200165 21.800000369548798,52.799998462200165 21.800000369548798,46.60000151395798 15.599999606609344,46.60000151395798 15.599999606609344,40.400000751018524 15.599999606609344,34.19999998807907 9.300000369548798,34.19999998807907 9.300000369548798,40.400000751018524 9.300000369548798,46.60000151395798 9.300000369548798,52.799998462200165 9.300000369548798,58.99999922513962 9.300000369548798,65.19999998807907 15.599999606609344,65.19999998807907 15.599999606609344,58.99999922513962 " id="svg_98"/><rect x="40.400001525878906" y="52.79999923706055" width="6.199999809265137" height="6.199999809265137" id="svg_99"/><polygon points="83.79999846220016,34.19999998807907 83.79999846220016,40.400000751018524 83.79999846220016,46.60000151395798 77.60000151395798,46.60000151395798 77.60000151395798,52.799998462200165 83.79999846220016,52.799998462200165 83.79999846220016,58.99999922513962 83.79999846220016,65.19999998807907 90.10000151395798,65.19999998807907 90.10000151395798,58.99999922513962 90.10000151395798,52.799998462200165 90.10000151395798,46.60000151395798 90.10000151395798,40.400000751018524 90.10000151395798,34.19999998807907 " id="svg_100"/><polygon points="21.800000369548798,27.999999225139618 21.800000369548798,21.800000369548798 15.599999606609344,21.800000369548798 15.599999606609344,27.999999225139618 15.599999606609344,34.19999998807907 21.800000369548798,34.19999998807907 " id="svg_101"/><polygon points="21.800000369548798,65.19999998807907 15.599999606609344,65.19999998807907 15.599999606609344,71.39999693632126 15.599999606609344,77.60000151395798 21.800000369548798,77.60000151395798 21.800000369548798,71.39999693632126 " id="svg_102"/><polygon points="46.60000151395798,34.19999998807907 46.60000151395798,40.400000751018524 46.60000151395798,46.60000151395798 46.60000151395798,52.799998462200165 52.799998462200165,52.799998462200165 52.799998462200165,46.60000151395798 52.799998462200165,40.400000751018524 52.799998462200165,34.19999998807907 52.799998462200165,27.999999225139618 46.60000151395798,27.999999225139618 " id="svg_103"/><polygon points="52.799998462200165,83.79999846220016 52.799998462200165,77.60000151395798 46.60000151395798,77.60000151395798 46.60000151395798,83.79999846220016 40.400000751018524,83.79999846220016 34.19999998807907,83.79999846220016 34.19999998807907,90.10000151395798 40.400000751018524,90.10000151395798 46.60000151395798,90.10000151395798 52.799998462200165,90.10000151395798 58.99999922513962,90.10000151395798 65.19999998807907,90.10000151395798 65.19999998807907,83.79999846220016 58.99999922513962,83.79999846220016 " id="svg_104"/><polygon points="39.60000151395798,21.800000369548798 45.799998462200165,21.800000369548798 45.799998462200165,15.599999606609344 46.60000151395798,15.599999606609344 52.10000151395798,15.599999606609344 52.10000151395798,21.800000369548798 58.299998462200165,21.800000369548798 58.299998462200165,15.599999606609344 58.99999922513962,15.599999606609344 65.19999998807907,15.599999606609344 65.19999998807907,9.300000369548798 58.99999922513962,9.300000369548798 52.799998462200165,9.300000369548798 46.60000151395798,9.300000369548798 40.400000751018524,9.300000369548798 34.19999998807907,9.300000369548798 34.19999998807907,15.599999606609344 39.60000151395798,15.599999606609344 " id="svg_105"/><polygon points="77.60000151395798,34.19999998807907 83.79999846220016,34.19999998807907 83.79999846220016,27.999999225139618 83.79999846220016,21.800000369548798 77.60000151395798,21.800000369548798 77.60000151395798,27.999999225139618 " id="svg_106"/><polygon points="77.60000151395798,71.39999693632126 77.60000151395798,77.60000151395798 83.79999846220016,77.60000151395798 83.79999846220016,71.39999693632126 83.79999846220016,65.19999998807907 77.60000151395798,65.19999998807907 " id="svg_107"/><rect x="34.20000076293945" y="59" width="6.199999809265137" height="6.199999809265137" id="svg_108"/><rect x="28" y="65.19999694824219" width="6.199999809265137" height="6.199999809265137" id="svg_109"/><polygon points="27.999999225139618,77.60000151395798 21.800000369548798,77.60000151395798 21.800000369548798,83.79999846220016 27.999999225139618,83.79999846220016 34.19999998807907,83.79999846220016 34.19999998807907,77.60000151395798 " id="svg_110"/><polygon points="34.19999998807907,21.800000369548798 34.19999998807907,15.599999606609344 27.999999225139618,15.599999606609344 21.800000369548798,15.599999606609344 21.800000369548798,21.800000369548798 27.999999225139618,21.800000369548798 " id="svg_111"/><polygon points="65.19999998807907,77.60000151395798 65.19999998807907,83.79999846220016 71.39999693632126,83.79999846220016 77.60000151395798,83.79999846220016 77.60000151395798,77.60000151395798 71.39999693632126,77.60000151395798 " id="svg_112"/><polygon points="71.39999693632126,21.800000369548798 77.60000151395798,21.800000369548798 77.60000151395798,15.599999606609344 71.39999693632126,15.599999606609344 65.19999998807907,15.599999606609344 65.19999998807907,21.800000369548798 " id="svg_113"/></g></g><g class="st0" id="svg_114"><g class="st1" id="svg_115"><polygon points="18.69999998807907,80.69999998807907 24.900000751018524,80.69999998807907 24.900000751018524,74.50000303983688 18.69999998807907,74.50000303983688 18.69999998807907,68.29999846220016 18.69999998807907,62.10000151395798 24.900000751018524,62.10000151395798 24.900000751018524,55.900000751018524 18.69999998807907,55.900000751018524 18.69999998807907,49.69999998807907 18.69999998807907,43.49999922513962 24.900000751018524,43.49999922513962 24.900000751018524,37.299998462200165 18.69999998807907,37.299998462200165 18.69999998807907,31.099999606609344 18.69999998807907,24.900000751018524 24.900000751018524,24.900000751018524 24.900000751018524,18.69999998807907 18.69999998807907,18.69999998807907 18.69999998807907,12.500000178813934 18.69999998807907,6.199999988079071 12.500000178813934,6.199999988079071 12.500000178813934,12.500000178813934 12.500000178813934,18.69999998807907 6.199999988079071,18.69999998807907 6.199999988079071,24.900000751018524 12.500000178813934,24.900000751018524 12.500000178813934,31.099999606609344 12.500000178813934,37.299998462200165 6.199999988079071,37.299998462200165 6.199999988079071,43.49999922513962 12.500000178813934,43.49999922513962 12.500000178813934,49.69999998807907 12.500000178813934,55.900000751018524 6.199999988079071,55.900000751018524 6.199999988079071,62.10000151395798 12.500000178813934,62.10000151395798 12.500000178813934,68.29999846220016 12.500000178813934,74.50000303983688 6.199999988079071,74.50000303983688 6.199999988079071,80.69999998807907 12.500000178813934,80.69999998807907 12.500000178813934,87.00000303983688 12.500000178813934,93.19999998807907 18.69999998807907,93.19999998807907 18.69999998807907,87.00000303983688 " id="svg_116"/><polygon points="55.900000751018524,74.50000303983688 49.69999998807907,74.50000303983688 49.69999998807907,80.69999998807907 55.900000751018524,80.69999998807907 62.10000151395798,80.69999998807907 68.29999846220016,80.69999998807907 68.29999846220016,74.50000303983688 62.10000151395798,74.50000303983688 " id="svg_117"/><polygon points="43.49999922513962,43.49999922513962 49.69999998807907,43.49999922513962 55.900000751018524,43.49999922513962 62.10000151395798,43.49999922513962 68.29999846220016,43.49999922513962 68.29999846220016,37.299998462200165 62.10000151395798,37.299998462200165 55.900000751018524,37.299998462200165 49.69999998807907,37.299998462200165 43.49999922513962,37.299998462200165 37.299998462200165,37.299998462200165 31.099999606609344,37.299998462200165 31.099999606609344,43.49999922513962 37.299998462200165,43.49999922513962 " id="svg_118"/><polygon points="43.49999922513962,31.099999606609344 49.69999998807907,31.099999606609344 55.900000751018524,31.099999606609344 62.10000151395798,31.099999606609344 68.29999846220016,31.099999606609344 68.29999846220016,24.900000751018524 68.29999846220016,18.69999998807907 62.10000151395798,18.69999998807907 55.900000751018524,18.69999998807907 49.69999998807907,18.69999998807907 43.49999922513962,18.69999998807907 37.299998462200165,18.69999998807907 31.099999606609344,18.69999998807907 31.099999606609344,24.900000751018524 31.099999606609344,31.099999606609344 37.299998462200165,31.099999606609344 " id="svg_119"/><polygon points="86.89999693632126,6.199999988079071 86.89999693632126,12.500000178813934 86.89999693632126,18.69999998807907 86.89999693632126,24.900000751018524 86.89999693632126,31.099999606609344 86.89999693632126,37.299998462200165 86.89999693632126,43.49999922513962 86.89999693632126,49.69999998807907 86.89999693632126,55.900000751018524 86.89999693632126,62.10000151395798 86.89999693632126,68.29999846220016 86.89999693632126,74.50000303983688 86.89999693632126,80.69999998807907 86.89999693632126,87.00000303983688 86.89999693632126,93.19999998807907 93.19999998807907,93.19999998807907 93.19999998807907,87.00000303983688 93.19999998807907,80.69999998807907 93.19999998807907,74.50000303983688 93.19999998807907,68.29999846220016 93.19999998807907,62.10000151395798 93.19999998807907,55.900000751018524 93.19999998807907,49.69999998807907 93.19999998807907,43.49999922513962 93.19999998807907,37.299998462200165 93.19999998807907,31.099999606609344 93.19999998807907,24.900000751018524 93.19999998807907,18.69999998807907 93.19999998807907,12.500000178813934 93.19999998807907,6.199999988079071 " id="svg_120"/><polygon points="80.69999998807907,87.00000303983688 80.69999998807907,80.69999998807907 80.69999998807907,74.50000303983688 80.69999998807907,68.29999846220016 80.69999998807907,62.10000151395798 80.69999998807907,55.900000751018524 80.69999998807907,49.69999998807907 80.69999998807907,43.49999922513962 80.69999998807907,37.299998462200165 80.69999998807907,31.099999606609344 80.69999998807907,24.900000751018524 80.69999998807907,18.69999998807907 80.69999998807907,12.500000178813934 80.69999998807907,6.199999988079071 86.89999693632126,6.199999988079071 86.89999693632126,0 80.69999998807907,0 74.50000303983688,0 68.29999846220016,0 62.10000151395798,0 55.900000751018524,0 49.69999998807907,0 43.49999922513962,0 37.299998462200165,0 31.099999606609344,0 24.900000751018524,0 18.69999998807907,0 18.69999998807907,6.199999988079071 24.900000751018524,6.199999988079071 31.099999606609344,6.199999988079071 37.299998462200165,6.199999988079071 43.49999922513962,6.199999988079071 49.69999998807907,6.199999988079071 55.900000751018524,6.199999988079071 62.10000151395798,6.199999988079071 68.29999846220016,6.199999988079071 74.50000303983688,6.199999988079071 74.50000303983688,12.500000178813934 74.50000303983688,18.69999998807907 74.50000303983688,24.900000751018524 74.50000303983688,31.099999606609344 74.50000303983688,37.299998462200165 74.50000303983688,43.49999922513962 74.50000303983688,49.69999998807907 74.50000303983688,55.900000751018524 74.50000303983688,62.10000151395798 74.50000303983688,68.29999846220016 74.50000303983688,74.50000303983688 74.50000303983688,80.69999998807907 74.50000303983688,87.00000303983688 74.50000303983688,93.19999998807907 68.29999846220016,93.19999998807907 62.10000151395798,93.19999998807907 55.900000751018524,93.19999998807907 49.69999998807907,93.19999998807907 43.49999922513962,93.19999998807907 37.299998462200165,93.19999998807907 31.099999606609344,93.19999998807907 24.900000751018524,93.19999998807907 18.69999998807907,93.19999998807907 18.69999998807907,99.39999693632126 24.900000751018524,99.39999693632126 31.099999606609344,99.39999693632126 37.299998462200165,99.39999693632126 43.49999922513962,99.39999693632126 49.69999998807907,99.39999693632126 55.900000751018524,99.39999693632126 62.10000151395798,99.39999693632126 68.29999846220016,99.39999693632126 74.50000303983688,99.39999693632126 80.69999998807907,99.39999693632126 86.89999693632126,99.39999693632126 86.89999693632126,93.19999998807907 80.69999998807907,93.19999998807907 " id="svg_121"/></g></g><g class="st0" id="svg_122"><g class="st1" id="svg_123"><polygon points="15.599999606609344,80.69999998807907 15.599999606609344,74.50000303983688 15.599999606609344,68.29999846220016 15.599999606609344,62.10000151395798 15.599999606609344,55.900000751018524 15.599999606609344,49.69999998807907 15.599999606609344,43.49999922513962 15.599999606609344,37.299998462200165 15.599999606609344,31.099999606609344 15.599999606609344,24.900000751018524 15.599999606609344,18.69999998807907 15.599999606609344,12.500000178813934 9.300000369548798,12.500000178813934 9.300000369548798,18.69999998807907 9.300000369548798,24.900000751018524 9.300000369548798,31.099999606609344 9.300000369548798,37.299998462200165 9.300000369548798,43.49999922513962 9.300000369548798,49.69999998807907 9.300000369548798,55.900000751018524 9.300000369548798,62.10000151395798 9.300000369548798,68.29999846220016 9.300000369548798,74.50000303983688 9.300000369548798,80.69999998807907 9.300000369548798,87.00000303983688 9.300000369548798,93.19999998807907 15.599999606609344,93.19999998807907 15.599999606609344,87.00000303983688 " id="svg_124"/><polygon points="71.39999693632126,93.19999998807907 65.19999998807907,93.19999998807907 58.99999922513962,93.19999998807907 52.799998462200165,93.19999998807907 46.60000151395798,93.19999998807907 40.400000751018524,93.19999998807907 34.19999998807907,93.19999998807907 27.999999225139618,93.19999998807907 21.800000369548798,93.19999998807907 15.599999606609344,93.19999998807907 15.599999606609344,99.39999693632126 21.800000369548798,99.39999693632126 27.999999225139618,99.39999693632126 34.19999998807907,99.39999693632126 40.400000751018524,99.39999693632126 46.60000151395798,99.39999693632126 52.799998462200165,99.39999693632126 58.99999922513962,99.39999693632126 65.19999998807907,99.39999693632126 71.39999693632126,99.39999693632126 77.60000151395798,99.39999693632126 83.79999846220016,99.39999693632126 83.79999846220016,93.19999998807907 77.60000151395798,93.19999998807907 " id="svg_125"/><polygon points="46.60000151395798,74.50000303983688 52.799998462200165,74.50000303983688 58.99999922513962,74.50000303983688 65.19999998807907,74.50000303983688 65.19999998807907,68.29999846220016 58.99999922513962,68.29999846220016 52.799998462200165,68.29999846220016 46.60000151395798,68.29999846220016 40.400000751018524,68.29999846220016 34.19999998807907,68.29999846220016 34.19999998807907,74.50000303983688 40.400000751018524,74.50000303983688 " id="svg_126"/><polygon points="46.60000151395798,62.10000151395798 52.799998462200165,62.10000151395798 58.99999922513962,62.10000151395798 65.19999998807907,62.10000151395798 65.19999998807907,55.900000751018524 58.99999922513962,55.900000751018524 52.799998462200165,55.900000751018524 46.60000151395798,55.900000751018524 40.400000751018524,55.900000751018524 34.19999998807907,55.900000751018524 34.19999998807907,62.10000151395798 40.400000751018524,62.10000151395798 " id="svg_127"/><polygon points="46.60000151395798,49.69999998807907 52.799998462200165,49.69999998807907 58.99999922513962,49.69999998807907 65.19999998807907,49.69999998807907 65.19999998807907,43.49999922513962 58.99999922513962,43.49999922513962 52.799998462200165,43.49999922513962 46.60000151395798,43.49999922513962 40.400000751018524,43.49999922513962 34.19999998807907,43.49999922513962 34.19999998807907,49.69999998807907 40.400000751018524,49.69999998807907 " id="svg_128"/><polygon points="46.60000151395798,37.299998462200165 52.799998462200165,37.299998462200165 52.799998462200165,31.099999606609344 46.60000151395798,31.099999606609344 40.400000751018524,31.099999606609344 34.19999998807907,31.099999606609344 34.19999998807907,37.299998462200165 40.400000751018524,37.299998462200165 " id="svg_129"/><path d="M21.799999988079072,18.69999998807907 v6.2 v6.2 v6.2 v6.2 V49.69999998807907 v6.2 v6.2 v6.2 v6.2 V80.69999998807907 v6.2 h6.2 h6.2 h6.2 h6.2 h6.2 h6.2 h6.2 h6.2 h6.2 V80.69999998807907 v-6.2 v-6.2 v-6.2 v-6.2 V49.69999998807907 v-6.2 v-6.2 v-6.2 v-6.2 V18.69999998807907 v-6.2 h6.2 V6.199999988079071 h-6.2 h-6.2 h-6.2 h-6.2 V-1.1920928910669204e-8 h-6.2 h-6.2 h-6.2 v6.2 h-6.2 h-6.2 h-6.2 h-6.2 v6.2 h6.2 V18.69999998807907 zM34.19999998807907,12.499999988079072 V18.69999998807907 v6.2 h6.2 h6.2 h6.2 h6.2 h6.2 V18.69999998807907 v-6.2 h6.2 V18.69999998807907 v6.2 v6.2 v6.2 v6.2 V49.69999998807907 v6.2 v6.2 v6.2 v6.2 V80.69999998807907 h-6.2 h-6.2 h-6.2 h-6.2 h-6.2 h-6.2 h-6.2 v-6.2 v-6.2 v-6.2 v-6.2 V49.69999998807907 v-6.2 v-6.2 v-6.2 v-6.2 V18.69999998807907 v-6.2 H34.19999998807907 z" id="svg_130"/><polygon points="83.79999846220016,12.500000178813934 83.79999846220016,18.69999998807907 83.79999846220016,24.900000751018524 83.79999846220016,31.099999606609344 83.79999846220016,37.299998462200165 83.79999846220016,43.49999922513962 83.79999846220016,49.69999998807907 83.79999846220016,55.900000751018524 83.79999846220016,62.10000151395798 83.79999846220016,68.29999846220016 83.79999846220016,74.50000303983688 83.79999846220016,80.69999998807907 83.79999846220016,87.00000303983688 83.79999846220016,93.19999998807907 90.10000151395798,93.19999998807907 90.10000151395798,87.00000303983688 90.10000151395798,80.69999998807907 90.10000151395798,74.50000303983688 90.10000151395798,68.29999846220016 90.10000151395798,62.10000151395798 90.10000151395798,55.900000751018524 90.10000151395798,49.69999998807907 90.10000151395798,43.49999922513962 90.10000151395798,37.299998462200165 90.10000151395798,31.099999606609344 90.10000151395798,24.900000751018524 90.10000151395798,18.69999998807907 90.10000151395798,12.500000178813934 " id="svg_131"/></g></g><g class="st0" id="svg_132"><g class="st1" id="svg_133"><path d="M93.19999998807907,31.09999998807907 v6.2 h-6.2 v-6.2 H93.19999998807907 v-6.2 h-6.2 V18.69999998807907 H80.69999998807907 v6.2 h-6.2 h-6.2 V18.69999998807907 v-6.2 h6.2 V6.199999988079071 h-6.2 h-6.2 h-6.2 H49.69999998807907 h-6.2 h-6.2 h-6.2 h-6.2 H18.69999998807907 h-6.2 v6.2 V18.69999998807907 v6.2 H6.199999988079071 v6.2 h6.2 v6.2 H6.199999988079071 v-6.2 H-1.1920928910669204e-8 v6.2 v6.2 V49.69999998807907 v6.2 v6.2 v6.2 v6.2 V80.69999998807907 v6.2 h6.2 v6.2 h6.2 H18.69999998807907 h6.2 h6.2 h6.2 h6.2 H49.69999998807907 h6.2 h6.2 h6.2 h6.2 H80.69999998807907 h6.2 h6.2 v-6.2 h6.2 V80.69999998807907 v-6.2 v-6.2 v-6.2 v-6.2 V49.69999998807907 v-6.2 v-6.2 v-6.2 H93.19999998807907 zM93.19999998807907,49.69999998807907 v6.2 v6.2 v6.2 v6.2 V80.69999998807907 h-6.2 v6.2 H80.69999998807907 h-6.2 h-6.2 h-6.2 h-6.2 H49.69999998807907 h-6.2 h-6.2 h-6.2 h-6.2 H18.69999998807907 h-6.2 V80.69999998807907 H6.199999988079071 v-6.2 v-6.2 v-6.2 v-6.2 V49.69999998807907 v-6.2 h6.2 V49.69999998807907 H18.69999998807907 v-6.2 v-6.2 v-6.2 v-6.2 V18.69999998807907 v-6.2 h6.2 h6.2 h6.2 h6.2 H49.69999998807907 h6.2 h6.2 V18.69999998807907 v6.2 v6.2 h6.2 h6.2 H80.69999998807907 v6.2 v6.2 V49.69999998807907 h6.2 v-6.2 h6.2 V49.69999998807907 z" id="svg_134"/><rect x="68.29999542236328" y="62.10000228881836" width="6.199999809265137" height="6.199999809265137" id="svg_135"/><rect x="24.900001525878906" y="62.10000228881836" width="6.199999809265137" height="6.199999809265137" id="svg_136"/><polygon points="24.900000751018524,55.900000751018524 31.099999606609344,55.900000751018524 31.099999606609344,62.10000151395798 37.299998462200165,62.10000151395798 37.299998462200165,55.900000751018524 43.49999922513962,55.900000751018524 49.69999998807907,55.900000751018524 55.900000751018524,55.900000751018524 62.10000151395798,55.900000751018524 62.10000151395798,62.10000151395798 68.29999846220016,62.10000151395798 68.29999846220016,55.900000751018524 74.50000303983688,55.900000751018524 80.69999998807907,55.900000751018524 80.69999998807907,49.69999998807907 74.50000303983688,49.69999998807907 68.29999846220016,49.69999998807907 62.10000151395798,49.69999998807907 55.900000751018524,49.69999998807907 49.69999998807907,49.69999998807907 43.49999922513962,49.69999998807907 37.299998462200165,49.69999998807907 31.099999606609344,49.69999998807907 24.900000751018524,49.69999998807907 18.69999998807907,49.69999998807907 18.69999998807907,55.900000751018524 " id="svg_137"/><rect x="18.700000762939453" y="68.29999542236328" width="6.199999809265137" height="6.199999809265137" id="svg_138"/><rect x="74.5" y="68.29999542236328" width="6.199999809265137" height="6.199999809265137" id="svg_139"/><rect x="12.5" y="74.5" width="6.199999809265137" height="6.199999809265137" id="svg_140"/><rect x="80.69999694824219" y="74.5" width="6.199999809265137" height="6.199999809265137" id="svg_141"/><rect x="74.5" y="12.5" width="6.199999809265137" height="6.199999809265137" id="svg_142"/></g></g></g></svg>