<svg xmlns="http://www.w3.org/2000/svg" xmlns:xlink="http://www.w3.org/1999/xlink" version="1.1" style="" xml:space="preserve" width="100" height="100"><rect id="backgroundrect" width="100%" height="100%" x="0" y="0" fill="none" stroke="none" class="" style=""/><g class="currentLayer" style=""><title>Layer 1</title><g id="svg_1" class=""><rect x="58.36220467090607" y="75.2598420381546" width="4" height="2" id="svg_2"/><rect x="54.36220467090607" y="73.2598420381546" width="4" height="2" id="svg_3"/><rect x="50.36220467090607" y="71.2598420381546" width="4" height="2" id="svg_4"/><rect x="46.36220467090607" y="69.2598420381546" width="4" height="2" id="svg_5"/><rect x="42.36220467090607" y="67.2598420381546" width="4" height="2" id="svg_6"/><rect x="38.36220467090607" y="65.2598420381546" width="4" height="2" id="svg_7"/><rect x="34.36220467090607" y="63.2598420381546" width="4" height="2" id="svg_8"/><rect x="30.362204670906067" y="61.2598420381546" width="4" height="2" id="svg_9"/><rect x="26.362204670906067" y="59.2598420381546" width="4" height="2" id="svg_10"/><rect x="22.362204670906067" y="57.2598420381546" width="4" height="2" id="svg_11"/><rect x="18.362204670906067" y="55.2598420381546" width="4" height="2" id="svg_12"/><rect x="14.362204670906067" y="53.2598420381546" width="4" height="2" id="svg_13"/><rect x="10.362204670906067" y="51.2598420381546" width="4" height="2" id="svg_14"/><rect x="6.362204670906067" y="49.2598420381546" width="4" height="2" id="svg_15"/><rect x="4.362204670906067" y="47.2598420381546" width="2" height="2" id="svg_16"/><rect x="62.36220467090607" y="77.2598420381546" width="8" height="2" id="svg_17"/><rect x="70.36220467090607" y="75.2598420381546" width="4" height="2" id="svg_18"/><rect x="74.36220467090607" y="73.2598420381546" width="4" height="2" id="svg_19"/><rect x="78.36220467090607" y="71.2598420381546" width="4" height="2" id="svg_20"/><rect x="82.36220467090607" y="69.2598420381546" width="4" height="2" id="svg_21"/><rect x="86.36220467090607" y="67.2598420381546" width="4" height="2" id="svg_22"/><rect x="90.36220467090607" y="65.2598420381546" width="4" height="2" id="svg_23"/><rect x="94.36220467090607" y="63.2598420381546" width="2" height="2" id="svg_24"/></g><rect x="58.36220467090607" y="69.2598420381546" width="4" height="2" id="svg_25" class=""/><rect x="54.36220467090607" y="67.2598420381546" width="4" height="2" id="svg_26" class=""/><rect x="50.36220467090607" y="65.2598420381546" width="4" height="2" id="svg_27" class=""/><rect x="46.36220467090607" y="63.2598420381546" width="4" height="2" id="svg_28" class=""/><rect x="42.36220467090607" y="61.2598420381546" width="4" height="2" id="svg_29" class=""/><rect x="38.36220467090607" y="59.2598420381546" width="4" height="2" id="svg_30" class=""/><rect x="34.36220467090607" y="57.2598420381546" width="4" height="2" id="svg_31" class=""/><rect x="30.362204670906067" y="55.2598420381546" width="4" height="2" id="svg_32" class=""/><rect x="26.362204670906067" y="53.2598420381546" width="4" height="2" id="svg_33" class=""/><rect x="22.362204670906067" y="51.2598420381546" width="4" height="2" id="svg_34" class=""/><rect x="18.362204670906067" y="49.2598420381546" width="4" height="2" id="svg_35" class=""/><rect x="14.362204670906067" y="47.2598420381546" width="4" height="2" id="svg_36" class=""/><rect x="10.362204670906067" y="45.2598420381546" width="4" height="2" id="svg_37" class=""/><rect x="6.362204670906067" y="43.2598420381546" width="4" height="2" id="svg_38" class=""/><polygon points="6.3622050285339355,41.259851813316345 6.3622050285339355,43.25985944271088 4.3622050285339355,43.25985944271088 4.3622050285339355,47.25986707210541 2.3622045516967773,47.25986707210541 2.3622045516967773,37.259844183921814 4.3622050285339355,37.259844183921814 4.3622050285339355,41.259851813316345 " id="svg_39" class=""/><rect x="14.362204670906067" y="35.2598420381546" width="4" height="2" id="svg_40" class=""/><rect x="10.362204670906067" y="37.2598420381546" width="4" height="2" id="svg_41" class=""/><rect x="8.362204670906067" y="39.2598420381546" width="2" height="2" id="svg_42" class=""/><rect x="18.362204670906067" y="33.2598420381546" width="4" height="2" id="svg_43" class=""/><rect x="22.362204670906067" y="31.259842038154602" width="4" height="2" id="svg_44" class=""/><rect x="26.362204670906067" y="29.259842038154602" width="4" height="2" id="svg_45" class=""/><rect x="30.362204670906067" y="27.259842038154602" width="4" height="2" id="svg_46" class=""/><rect x="78.36220467090607" y="47.2598420381546" width="4" height="2" id="svg_47" class=""/><rect x="74.36220467090607" y="45.2598420381546" width="4" height="2" id="svg_48" class=""/><rect x="70.36220467090607" y="43.2598420381546" width="4" height="2" id="svg_49" class=""/><rect x="67.14960622787476" y="41.2598420381546" width="4" height="2" id="svg_50" class=""/><rect x="62.36220467090607" y="39.2598420381546" width="4" height="2" id="svg_51" class=""/><rect x="58.36220467090607" y="37.2598420381546" width="4" height="2" id="svg_52" class=""/><rect x="54.36220467090607" y="35.2598420381546" width="4" height="2" id="svg_53" class=""/><rect x="50.36220467090607" y="33.2598420381546" width="4" height="2" id="svg_54" class=""/><rect x="46.36220467090607" y="31.259842038154602" width="4" height="2" id="svg_55" class=""/><rect x="42.36220467090607" y="29.259842038154602" width="4" height="2" id="svg_56" class=""/><rect x="38.36220467090607" y="27.259842038154602" width="4" height="2" id="svg_57" class=""/><rect x="34.36220467090607" y="25.259842038154602" width="4" height="2" id="svg_58" class=""/><rect x="26.362204670906067" y="23.259842038154602" width="4" height="2" id="svg_59" class=""/><rect x="22.362204670906067" y="25.259842038154602" width="4" height="2" id="svg_60" class=""/><rect x="18.362204670906067" y="27.259842038154602" width="4" height="2" id="svg_61" class=""/><rect x="14.362204670906067" y="29.259842038154602" width="4" height="2" id="svg_62" class=""/><rect x="10.362204670906067" y="31.259842038154602" width="4" height="2" id="svg_63" class=""/><rect x="6.362204670906067" y="33.2598420381546" width="4" height="2" id="svg_64" class=""/><rect x="30.362204670906067" y="21.259842038154602" width="8" height="2" id="svg_65" class=""/><rect x="4.362204670906067" y="35.2598420381546" width="2" height="2" id="svg_66" class=""/><rect x="62.36220467090607" y="71.2598420381546" width="8" height="2" id="svg_67" class=""/><rect x="58.36220467090607" y="61.2598420381546" width="4" height="2" id="svg_68" class=""/><rect x="62.36220467090607" y="59.2598420381546" width="4" height="2" id="svg_69" class=""/><rect x="66.36220467090607" y="57.2598420381546" width="4" height="2" id="svg_70" class=""/><rect x="70.36220467090607" y="55.2598420381546" width="4" height="2" id="svg_71" class=""/><rect x="74.36220467090607" y="53.2598420381546" width="4" height="2" id="svg_72" class=""/><rect x="78.36220467090607" y="51.2598420381546" width="4" height="2" id="svg_73" class=""/><rect x="82.36220467090607" y="49.2598420381546" width="2" height="2" id="svg_74" class=""/><rect x="50.36220467090607" y="61.2598420381546" width="4" height="2" id="svg_75" class=""/><rect x="46.36220467090607" y="59.2598420381546" width="4" height="2" id="svg_76" class=""/><rect x="42.36220467090607" y="57.2598420381546" width="4" height="2" id="svg_77" class=""/><rect x="38.36220467090607" y="55.2598420381546" width="4" height="2" id="svg_78" class=""/><rect x="34.36220467090607" y="53.2598420381546" width="4" height="2" id="svg_79" class=""/><rect x="30.362204670906067" y="51.2598420381546" width="4" height="2" id="svg_80" class=""/><rect x="26.362204670906067" y="49.2598420381546" width="4" height="2" id="svg_81" class=""/><rect x="22.362204670906067" y="47.2598420381546" width="4" height="2" id="svg_82" class=""/><rect x="18.362204670906067" y="45.2598420381546" width="4" height="2" id="svg_83" class=""/><rect x="14.362204670906067" y="43.2598420381546" width="4" height="2" id="svg_84" class=""/><rect x="10.362204670906067" y="41.2598420381546" width="4" height="2" id="svg_85" class=""/><rect x="54.36220467090607" y="63.2598420381546" width="4" height="2" id="svg_86" class=""/><rect x="70.36220467090607" y="69.2598420381546" width="4" height="2" id="svg_87" class=""/><rect x="74.36220467090607" y="67.2598420381546" width="4" height="2" id="svg_88" class=""/><rect x="78.36220467090607" y="65.2598420381546" width="4" height="2" id="svg_89" class=""/><rect x="82.36220467090607" y="63.2598420381546" width="4" height="2" id="svg_90" class=""/><rect x="86.36220467090607" y="61.2598420381546" width="4" height="2" id="svg_91" class=""/><rect x="90.36220467090607" y="59.2598420381546" width="4" height="2" id="svg_92" class=""/><rect x="90.36220467090607" y="49.2598420381546" width="4" height="2" id="svg_93" class=""/><rect x="76.36220467090607" y="61.2598420381546" width="4" height="2" id="svg_94" class=""/><rect x="86.36220467090607" y="47.2598420381546" width="4" height="2" id="svg_95" class=""/><rect x="82.36220467090607" y="45.2598420381546" width="4" height="2" id="svg_96" class=""/><rect x="78.36220467090607" y="43.2598420381546" width="4" height="2" id="svg_97" class=""/><rect x="74.36220467090607" y="41.2598420381546" width="4" height="2" id="svg_98" class=""/><rect x="70.36220467090607" y="39.2598420381546" width="4" height="2" id="svg_99" class=""/><rect x="66.36220467090607" y="37.2598420381546" width="4" height="2" id="svg_100" class=""/><rect x="62.36220467090607" y="35.2598420381546" width="4" height="2" id="svg_101" class=""/><rect x="58.36220467090607" y="33.2598420381546" width="4" height="2" id="svg_102" class=""/><rect x="54.36220467090607" y="31.259842038154602" width="4" height="2" id="svg_103" class=""/><rect x="50.36220467090607" y="29.259842038154602" width="4" height="2" id="svg_104" class=""/><rect x="46.36220467090607" y="27.259842038154602" width="4" height="2" id="svg_105" class=""/><rect x="42.36220467090607" y="25.259842038154602" width="4" height="2" id="svg_106" class=""/><rect x="38.36220467090607" y="23.259842038154602" width="4" height="2" id="svg_107" class=""/><polygon points="98.36219787597656,53.25988233089447 98.36219787597656,63.25988233089447 96.36219787597656,63.25988233089447 96.36219787597656,59.25988233089447 94.36219787597656,59.25988233089447 94.36219787597656,57.25988233089447 96.36219787597656,57.25988233089447 96.36219787597656,53.25988233089447 " id="svg_108" class=""/><rect x="94.36220467090607" y="51.2598420381546" width="2" height="2" id="svg_109" class=""/><rect x="80.36220467090607" y="59.2598420381546" width="2" height="2" id="svg_110" class=""/><rect x="74.36220467090607" y="59.2598420381546" width="2" height="2" id="svg_111" class=""/><rect x="76.36220467090607" y="57.2598420381546" width="4" height="2" id="svg_112" class=""/></g></svg>