<svg xmlns="http://www.w3.org/2000/svg" xmlns:xlink="http://www.w3.org/1999/xlink" version="1.1" style="enable-background:new 0 0 100 100;" xml:space="preserve" width="55" height="55"><rect id="backgroundrect" width="100%" height="100%" x="0" y="0" fill="none" stroke="none"/><style type="text/css">
	.st0{fill:#fff;}
</style><g class="currentLayer" style=""><title>Layer 1</title><path class="st0" d="M23.75,42.50000015258789 v2.5 h-2.5 v-2.5 H23.75 zM26.25,40.00000015258789 h-2.5 v2.5 h2.5 V40.00000015258789 zM21.25,12.500000152587887 v2.5 h2.5 v-2.5 H21.25 zM23.75,15.000000152587887 v2.5 h2.5 v-2.5 H23.75 zM43.75,1.5258789076710857e-7 v2.5 v2.5 v2.5 h-2.5 v2.5 v2.5 v2.5 v2.5 v2.5 h-2.5 v2.5 h-2.5 v2.5 h-2.5 v2.5 v2.5 h2.5 v2.5 h2.5 v2.5 h2.5 v2.5 v2.5 v2.5 v2.5 v2.5 h2.5 v2.5 v2.5 v2.5 h-2.5 h-2.5 h-2.5 h-2.5 h-2.5 h-2.5 h-2.5 h-2.5 h-2.5 h-2.5 h-2.5 h-2.5 h-2.5 v-2.5 v-2.5 v-2.5 h2.5 v-2.5 v-2.5 v-2.5 v-2.5 v-2.5 h2.5 v-2.5 h2.5 v-2.5 h2.5 v-2.5 v-2.5 h-2.5 v-2.5 h-2.5 v-2.5 h-2.5 v-2.5 v-2.5 v-2.5 v-2.5 v-2.5 h-2.5 v-2.5 v-2.5 v-2.5 h2.5 h2.5 h2.5 h2.5 h2.5 h2.5 h2.5 h2.5 h2.5 h2.5 h2.5 h2.5 H43.75 zM41.25,50.00000015258789 h-2.5 h-2.5 h-2.5 h-2.5 h-2.5 h-2.5 h-2.5 h-2.5 h-2.5 h-2.5 h-2.5 v2.5 h2.5 h2.5 h2.5 h2.5 h2.5 h2.5 h2.5 h2.5 h2.5 h2.5 h2.5 V50.00000015258789 zM38.75,7.500000152587891 h-2.5 h-2.5 h-2.5 h-2.5 h-2.5 h-2.5 h-2.5 h-2.5 h-2.5 v2.5 v2.5 v2.5 v2.5 h2.5 v2.5 h2.5 v2.5 h2.5 v2.5 h2.5 v2.5 v2.5 h-2.5 v2.5 h-2.5 v2.5 h-2.5 v2.5 h-2.5 v2.5 v2.5 v2.5 v2.5 h2.5 v-2.5 h2.5 v2.5 h2.5 v-2.5 h2.5 v2.5 h2.5 v-2.5 h2.5 v2.5 h2.5 v-2.5 h2.5 v2.5 h2.5 v-2.5 v-2.5 v-2.5 v-2.5 h-2.5 v-2.5 h-2.5 v-2.5 h-2.5 v-2.5 h-2.5 v-2.5 v-2.5 h2.5 v-2.5 h2.5 v-2.5 h2.5 v-2.5 h2.5 v-2.5 v-2.5 v-2.5 V7.500000152587891 zM41.25,2.5000001525878908 h-2.5 h-2.5 h-2.5 h-2.5 h-2.5 h-2.5 h-2.5 h-2.5 h-2.5 h-2.5 h-2.5 v2.5 h2.5 h2.5 h2.5 h2.5 h2.5 h2.5 h2.5 h2.5 h2.5 h2.5 h2.5 V2.5000001525878908 zM31.25,42.50000015258789 v2.5 h2.5 v-2.5 H31.25 zM26.25,42.50000015258789 v2.5 h2.5 v-2.5 H26.25 zM31.25,42.50000015258789 v-2.5 h-2.5 v2.5 H31.25 zM28.75,37.50000015258789 h-2.5 v2.5 h2.5 V37.50000015258789 zM26.25,35.00000015258789 h2.5 v-2.5 h-2.5 V35.00000015258789 zM26.25,22.500000152587887 v2.5 h2.5 v-2.5 H26.25 zM26.25,20.000000152587887 h2.5 v-2.5 h-2.5 V20.000000152587887 zM28.75,12.500000152587887 h-2.5 v2.5 h2.5 V12.500000152587887 zM31.25,15.000000152587887 h2.5 v-2.5 h-2.5 V15.000000152587887 zM28.75,17.500000152587887 h2.5 v-2.5 h-2.5 V17.500000152587887 z" id="svg_1" fill="#ffffff" fill-opacity="1" stroke="none"/></g></svg>
