<?xml version="1.0" standalone="no"?>
<!DOCTYPE svg PUBLIC "-//W3C//DTD SVG 20010904//EN"
 "http://www.w3.org/TR/2001/REC-SVG-20010904/DTD/svg10.dtd">
<svg version="1.0" xmlns="http://www.w3.org/2000/svg"
 width="140.000000pt" height="140.000000pt" viewBox="0 0 140.000000 140.000000"
 preserveAspectRatio="xMidYMid meet">
<metadata>
Created by potrace 1.11, written by Peter Selinger 2001-2013
</metadata>
<g transform="translate(0.000000,140.000000) scale(0.100000,-0.100000)"
fill="#000000" stroke="none">
<path d="M0 700 l0 -700 700 0 700 0 0 700 0 700 -700 0 -700 0 0 -700z m600
395 c0 -20 5 -25 25 -25 20 0 25 -5 25 -25 l0 -25 200 0 200 0 0 -30 c0 -25 4
-30 25 -30 l25 0 0 -315 0 -315 -25 0 c-20 0 -25 -5 -25 -25 l0 -25 -350 0
-350 0 0 25 c0 20 -5 25 -25 25 l-25 0 0 315 0 315 25 0 c21 0 25 5 25 30 0
25 4 30 25 30 20 0 25 5 25 25 0 20 5 25 25 25 20 0 25 5 25 25 0 24 2 25 75
25 73 0 75 -1 75 -25z"/>
<path d="M450 750 l0 -310 -25 0 -25 0 0 260 0 260 -25 0 -25 0 0 -315 0 -315
350 0 350 0 0 315 0 315 -200 0 -200 0 0 -260 0 -260 -25 0 -25 0 0 310 0 310
-75 0 -75 0 0 -310z m500 80 l0 -80 -125 0 -125 0 0 80 0 80 125 0 125 0 0
-80z m-200 -161 c0 -26 -3 -30 -22 -27 -17 2 -24 11 -26 31 -3 23 0 27 22 27
22 0 26 -4 26 -31z m100 0 c0 -26 -3 -30 -22 -27 -17 2 -24 11 -26 31 -3 23 0
27 22 27 22 0 26 -4 26 -31z m100 0 c0 -26 -3 -30 -22 -27 -17 2 -24 11 -26
31 -3 23 0 27 22 27 22 0 26 -4 26 -31z m-200 -99 c0 -25 -4 -30 -25 -30 -21
0 -25 5 -25 30 0 25 4 30 25 30 21 0 25 -5 25 -30z m100 0 c0 -25 -4 -30 -25
-30 -21 0 -25 5 -25 30 0 25 4 30 25 30 21 0 25 -5 25 -30z m100 0 c0 -25 -4
-30 -25 -30 -21 0 -25 5 -25 30 0 25 4 30 25 30 21 0 25 -5 25 -30z m-200
-105 c0 -20 -5 -25 -25 -25 -20 0 -25 5 -25 25 0 20 5 25 25 25 20 0 25 -5 25
-25z m100 0 c0 -20 -5 -25 -25 -25 -20 0 -25 5 -25 25 0 20 5 25 25 25 20 0
25 -5 25 -25z m100 0 c0 -20 -5 -25 -25 -25 -20 0 -25 5 -25 25 0 20 5 25 25
25 20 0 25 -5 25 -25z m-350 -55 l0 -30 -75 0 -75 0 0 30 0 30 75 0 75 0 0
-30z"/>
<path d="M750 830 c0 -18 7 -20 75 -20 68 0 75 2 75 20 0 18 -7 20 -75 20 -68
0 -75 -2 -75 -20z"/>
</g>
</svg>
